<svg width="9" height="20" viewBox="0 0 9 20" fill="none" xmlns="http://www.w3.org/2000/svg">
<path d="M0.221636 15.2601C0.369354 15.109 0.547846 15.0365 0.757114 15.0426C0.966382 15.0491 1.14487 15.1279 1.29259 15.279L3.37911 17.4129L3.37911 0.755358C3.37911 0.54134 3.45002 0.361817 3.59183 0.216788C3.73314 0.0722627 3.90844 0 4.1177 0C4.32697 0 4.50251 0.0722627 4.64432 0.216788C4.78564 0.361817 4.8563 0.54134 4.8563 0.755358V9.08413L4.8563 17.4129L6.96128 15.2601C7.109 15.109 7.28454 15.0335 7.4879 15.0335C7.69076 15.0335 7.86606 15.109 8.01377 15.2601C8.16149 15.4112 8.23535 15.5907 8.23535 15.7987C8.23535 16.0062 8.16149 16.1854 8.01377 16.3365L4.63472 19.7923C4.56086 19.8678 4.48085 19.9214 4.39468 19.9532C4.30851 19.9844 4.21618 20 4.1177 20C4.01923 20 3.9269 19.9844 3.84073 19.9532C3.75456 19.9214 3.67455 19.8678 3.60069 19.7923L0.203171 16.3176C0.0677624 16.1791 5.72205e-05 16.0062 5.72205e-05 15.7987C5.72205e-05 15.5907 0.0739174 15.4112 0.221636 15.2601Z" fill="#121212"/>
</svg>
