<svg width="164" height="50" viewBox="0 0 164 50" fill="none" xmlns="http://www.w3.org/2000/svg">
<path d="M52.3692 17.6H60.2713C61.562 17.6 62.5102 17.8963 63.116 18.4889C63.7219 19.0684 64.0248 19.9574 64.0248 21.1559C64.0248 21.9461 63.8536 22.5914 63.5111 23.0919C63.1687 23.5792 62.7473 23.9216 62.2468 24.1192C63.3136 24.4089 64.0379 25.1201 64.4199 26.2527C64.5516 26.661 64.6174 27.1351 64.6174 27.6751C64.6174 28.9658 64.3145 29.914 63.7087 30.5199C63.1029 31.1257 62.1546 31.4286 60.8639 31.4286H52.3692V17.6ZM61.0615 27.0825C61.0615 26.2922 60.6664 25.8971 59.8762 25.8971H55.9251V28.6629H59.8762C60.6664 28.6629 61.0615 28.2678 61.0615 27.4776V27.0825ZM60.4688 21.551C60.4688 20.7608 60.0737 20.3657 59.2835 20.3657H55.9251V23.1314H59.2835C60.0737 23.1314 60.4688 22.7363 60.4688 21.9461V21.551Z" fill="white"/>
<path d="M68.864 31.4286H65.0118L70.2469 17.6H74.1979L79.4331 31.4286H75.5808L74.6918 28.9592H69.753L68.864 31.4286ZM70.642 26.391H73.8028L72.2224 21.7485L70.642 26.391Z" fill="white"/>
<path d="M89.5113 17.6L91.8819 26.4898L93.9562 17.6H97.8085L94.055 31.4286H90.3015L87.9309 22.8351L85.5603 31.4286H81.8068L78.0533 17.6H81.9055L83.9798 26.4898L86.3505 17.6H89.5113Z" fill="white"/>
<path d="M100.291 31.4286H96.4387L101.674 17.6H105.625L110.86 31.4286H107.008L106.119 28.9592H101.18L100.291 31.4286ZM102.069 26.391H105.23L103.649 21.7485L102.069 26.391Z" fill="white"/>
<path d="M111.847 17.6H120.144C121.527 17.6 122.528 17.916 123.147 18.5482C123.779 19.1672 124.095 20.1681 124.095 21.551V23.329C124.095 24.4221 123.911 25.2716 123.542 25.8774C123.187 26.4832 122.614 26.8849 121.823 27.0825L124.293 31.4286H120.441L118.169 27.28H115.403V31.4286H111.847V17.6ZM120.539 21.551C120.539 20.7608 120.144 20.3657 119.354 20.3657H115.403V24.5143H119.354C120.144 24.5143 120.539 24.1192 120.539 23.329V21.551Z" fill="white"/>
<path d="M137.03 31.4286H126.065V17.6H137.03V20.3657H129.621V23.0326H135.449V25.7984H129.621V28.6629H137.03V31.4286Z" fill="white"/>
<path d="M147.495 21.3534C147.495 20.5632 147.1 20.1681 146.31 20.1681H142.951C142.161 20.1681 141.766 20.5632 141.766 21.3534V27.6751C141.766 28.4653 142.161 28.8604 142.951 28.8604H146.31C147.1 28.8604 147.495 28.4653 147.495 27.6751V21.3534ZM151.051 27.6751C151.051 29.058 150.735 30.0655 150.103 30.6977C149.484 31.3167 148.483 31.6262 147.1 31.6262H142.161C140.778 31.6262 139.771 31.3167 139.139 30.6977C138.52 30.0655 138.21 29.058 138.21 27.6751V21.3534C138.21 19.9706 138.52 18.9697 139.139 18.3507C139.771 17.7185 140.778 17.4024 142.161 17.4024H147.1C148.483 17.4024 149.484 17.7185 150.103 18.3507C150.735 18.9697 151.051 19.9706 151.051 21.3534V27.6751Z" fill="white"/>
<path d="M156.592 31.4286H153.036V17.6H164V20.3657H156.592V23.6253H162.42V26.391H156.592V31.4286Z" fill="white"/>
<path d="M7.22787 19.2145C13.9921 32.3351 23.7563 37.444 27.7798 38.3703C19.5045 28.5928 16.2145 20.1169 15.5947 17.0992C11.875 17.7687 10.6358 18.0269 7.22787 19.2145Z" fill="url(#paint0_linear_1_13)"/>
<path d="M34.0263 10.953C19.2794 10.2921 10.0334 16.1853 7.22791 19.2145C19.8267 16.9013 28.7767 18.3023 31.7027 19.2662C33.3034 15.3936 34.0779 13.5864 34.0263 10.953Z" fill="url(#paint1_linear_1_13)"/>
<path d="M27.7785 38.3709C35.182 25.6001 35.4154 14.841 34.0263 10.9529C30.253 23.194 24.306 30.852 22.0987 33.0009C23.3895 34.8598 26.0745 36.4088 27.7785 38.3709Z" fill="url(#paint2_linear_1_13)"/>
<path fill-rule="evenodd" clip-rule="evenodd" d="M20.0333 34.477C23.2163 36.7626 26.0314 37.9587 27.7681 38.3585C24.4388 34.4248 21.9087 30.687 20.0333 27.4277V34.477Z" fill="url(#paint3_linear_1_13)"/>
<defs>
<linearGradient id="paint0_linear_1_13" x1="11.2478" y1="17.926" x2="27.7538" y2="38.3996" gradientUnits="userSpaceOnUse">
<stop stop-color="#07283A"/>
<stop offset="1" stop-color="#2A5267"/>
</linearGradient>
<linearGradient id="paint1_linear_1_13" x1="33.9746" y1="15.0838" x2="7.12464" y2="18.9047" gradientUnits="userSpaceOnUse">
<stop stop-color="#5FB0DD"/>
<stop offset="1" stop-color="#2979A6"/>
</linearGradient>
<linearGradient id="paint2_linear_1_13" x1="26.2772" y1="35.6952" x2="34.0641" y2="10.9307" gradientUnits="userSpaceOnUse">
<stop stop-color="#BDBDBD"/>
<stop offset="1" stop-color="#EDEDED"/>
</linearGradient>
<linearGradient id="paint3_linear_1_13" x1="11.1555" y1="17.7913" x2="27.7651" y2="38.3507" gradientUnits="userSpaceOnUse">
<stop stop-color="#07283A"/>
<stop offset="1" stop-color="#2A5267"/>
</linearGradient>
</defs>
</svg>
