<svg width="198" height="60" viewBox="0 0 198 60" fill="none" xmlns="http://www.w3.org/2000/svg">
<path d="M13.55 48.1C10.4167 48.1 8.08333 46.8833 6.55 44.45C5.05 42.0166 4.36667 38.7833 4.5 34.75C3.33333 34.8833 2.36667 34.4833 1.6 33.5499C0.866667 32.6166 0.5 31.3 0.5 29.6C0.5 27.9 0.933333 25.9 1.8 23.6C2.7 21.3 4.2 18.8333 6.3 16.2C7.4 14.8333 8.46667 13.6 9.5 12.5C10.5333 11.3666 11.55 10.3333 12.55 9.39995C13.6833 7.53328 14.85 5.91662 16.05 4.54995C17.25 3.18328 18.25 2.39995 19.05 2.19995C19.2167 2.16662 19.35 2.14995 19.45 2.14995C19.55 2.11662 19.6333 2.09995 19.7 2.09995C20 2.09995 20.15 2.18328 20.15 2.34995C20.15 2.48328 20.0667 2.63329 19.9 2.79995C19.7667 2.93329 19.6167 3.03328 19.45 3.09995C19.2167 3.16662 18.8833 3.43328 18.45 3.89995C18.0167 4.36662 17.6 4.84995 17.2 5.34995C16.8 5.84995 16.5 6.21662 16.3 6.44995C17.8 5.38329 19.2667 4.61662 20.7 4.14995C22.1667 3.68329 23.5667 3.44995 24.9 3.44995C26.9 3.44995 28.75 3.88328 30.45 4.74995C32.1833 5.61662 33.6833 6.74995 34.95 8.14995C36.2167 9.54995 37.2167 11.0833 37.95 12.75C38.6833 14.3833 39.0667 16 39.1 17.6C39.2 20.6 38.8 23.5166 37.9 26.35C37.0333 29.15 35.85 31.7666 34.35 34.2C32.85 36.6 31.1667 38.7166 29.3 40.5499C27.4667 42.3833 25.6167 43.8166 23.75 44.85C19.8167 47.0166 16.4167 48.1 13.55 48.1ZM15.35 46.5C16.45 46.5 17.6667 46.2833 19 45.85C20.3667 45.45 21.85 44.8166 23.45 43.95C25.4167 42.8833 27.2333 41.4166 28.9 39.5499C30.5667 37.6499 32.0167 35.5333 33.25 33.2C34.4833 30.8666 35.4167 28.4833 36.05 26.05C36.6833 23.5833 36.95 21.25 36.85 19.05C36.6833 15.9833 36.0333 13.4 34.9 11.3C33.7667 9.19995 32.2833 7.59995 30.45 6.49995C28.65 5.39995 26.6667 4.84995 24.5 4.84995C22.7333 4.84995 20.9 5.23329 19 5.99995C17.1333 6.76662 15.3 7.96662 13.5 9.59995C11.4667 12.4 9.81667 15.75 8.55 19.65C7.31667 23.55 6.63333 27.7833 6.5 32.35C6.6 32.3833 6.7 32.4 6.8 32.4C6.93333 32.4 7.06667 32.4 7.2 32.4H7.75C8.25 32.4 8.43333 32.4666 8.3 32.6C7.7 33.1 7.13333 33.4666 6.6 33.7C6.66667 35.9666 7 38.0666 7.6 40C8.2 41.9666 9.13333 43.5333 10.4 44.7C11.6667 45.9 13.3167 46.5 15.35 46.5ZM4.5 33C4.86667 29.4333 5.58333 25.9166 6.65 22.45C7.75 18.95 9.01667 15.7 10.45 12.7C9.88333 13.3666 9.3 14.0833 8.7 14.85C8.13333 15.5833 7.56667 16.35 7 17.15C6.16667 18.3166 5.35 19.55 4.55 20.85C3.78333 22.15 3.15 23.45 2.65 24.75C2.15 26.05 1.9 27.3 1.9 28.5C1.9 29.5 2.11667 30.4166 2.55 31.25C2.78333 31.6833 3.06667 32.05 3.4 32.35C3.76667 32.6166 4.13333 32.8333 4.5 33Z" fill="white"/>
<path d="M47.9266 47.95C47.4932 47.95 47.0766 47.7833 46.6766 47.45C46.3099 47.1166 45.9932 46.7833 45.7266 46.45C44.6599 45.2166 43.7599 43.5833 43.0266 41.5499C42.3266 39.5166 41.7932 37.2833 41.4266 34.85C41.0599 32.3833 40.8766 29.8833 40.8766 27.35C40.8766 24.9833 41.0266 22.6833 41.3266 20.45C41.6599 18.2166 42.1599 16.1833 42.8266 14.35C43.4932 12.5166 44.3266 11.05 45.3266 9.94995C46.6266 8.48328 47.8766 7.74995 49.0766 7.74995C49.8099 7.74995 50.3932 8.08328 50.8266 8.74995C51.2932 9.38329 51.5266 10.4 51.5266 11.8C51.5266 13.1333 51.2599 14.8333 50.7266 16.9C50.2266 18.9333 49.3599 21.3666 48.1266 24.2C47.6932 25.1333 47.2266 26.0666 46.7266 27C46.2599 27.9333 45.7599 28.9166 45.2266 29.95C45.0266 30.35 44.8599 30.55 44.7266 30.55C44.6599 30.55 44.6266 30.4833 44.6266 30.35C44.6266 30.0833 44.7432 29.7333 44.9766 29.3C48.0099 23.6 49.5266 17.9333 49.5266 12.3C49.5266 10.0666 49.0599 8.94995 48.1266 8.94995C47.4599 8.94995 46.6766 9.59995 45.7766 10.9C44.5432 12.7333 43.6932 14.9166 43.2266 17.45C42.7599 19.95 42.5266 22.4833 42.5266 25.05C42.5266 26.9833 42.6099 28.8666 42.7766 30.7C42.9432 32.5 43.1432 34.1333 43.3766 35.6C43.4766 36.2333 43.6266 37.0833 43.8266 38.15C44.0266 39.2166 44.2932 40.3333 44.6266 41.5C44.9599 42.7 45.3266 43.7833 45.7266 44.75C46.1599 45.75 46.6266 46.4666 47.1266 46.9C47.2599 47 47.3932 47.1 47.5266 47.2C47.6932 47.3333 47.8766 47.4166 48.0766 47.45C48.3766 47.45 48.5266 47.5333 48.5266 47.7C48.5266 47.8666 48.3266 47.95 47.9266 47.95Z" fill="white"/>
<path d="M54.425 23.3C54.125 23.3 53.9083 23.15 53.775 22.85C53.675 22.5166 53.625 22.2833 53.625 22.15C53.625 21.6166 53.775 21.1166 54.075 20.65C54.4083 20.15 54.775 19.8833 55.175 19.85H55.325C55.725 19.85 55.9917 19.95 56.125 20.15C56.2917 20.3166 56.375 20.5333 56.375 20.8C56.375 21.3 56.1583 21.85 55.725 22.45C55.2917 23.0166 54.8583 23.3 54.425 23.3ZM51.875 41.2C50.7417 41.2 49.975 40.7666 49.575 39.9C49.175 39.0333 48.975 38.0333 48.975 36.9C48.975 35.7666 49.0917 34.5833 49.325 33.35C49.5917 32.0833 49.875 30.9333 50.175 29.9C50.5083 28.8666 50.7583 28.1333 50.925 27.7C51.2917 26.9333 51.6583 26.2833 52.025 25.75C52.3917 25.1833 52.7917 24.9 53.225 24.9C53.525 24.9 53.7417 25.0166 53.875 25.25C54.0417 25.45 54.125 25.7166 54.125 26.05C54.125 26.7166 53.9417 27.4 53.575 28.1C53.2083 28.7666 52.875 29.4 52.575 30C51.9083 31.3666 51.375 32.5833 50.975 33.65C50.6083 34.7166 50.425 36.05 50.425 37.65C50.425 38.6833 50.525 39.4333 50.725 39.9C50.9583 40.3666 51.275 40.6 51.675 40.6C52.2083 40.6 52.825 40.3 53.525 39.7C54.225 39.0666 54.9417 38.2333 55.675 37.2C56.4083 36.1666 57.0583 35.05 57.625 33.85C57.9917 33.0833 58.275 32.7 58.475 32.7C58.6083 32.7 58.675 32.8333 58.675 33.1C58.675 33.4666 58.525 34 58.225 34.7C57.9583 35.3666 57.625 36.05 57.225 36.75C56.8583 37.45 56.5083 38 56.175 38.4C55.6083 39.1333 54.9583 39.7833 54.225 40.35C53.4917 40.9166 52.7083 41.2 51.875 41.2Z" fill="white"/>
<path d="M62.2281 43.35C62.0281 43.35 61.8281 43.2333 61.6281 43C61.4615 42.7666 61.3448 42.4 61.2781 41.9C61.2448 41.7666 61.2281 41.5666 61.2281 41.2999C61.2281 41.0666 61.2281 40.7833 61.2281 40.45C61.2281 39.7833 61.2281 39.1166 61.2281 38.45C61.2615 37.75 61.2781 37.2833 61.2781 37.0499C61.2781 35.6499 61.2115 34.2333 61.0781 32.8C60.9448 31.3666 60.6781 30.1666 60.2781 29.2C59.8781 28.2333 59.2448 27.75 58.3781 27.75C57.8448 27.75 57.3448 27.95 56.8781 28.35C56.4448 28.7166 56.0781 29.1 55.7781 29.5C55.4448 29.9 55.2115 30.1 55.0781 30.1C54.9448 30.1 54.8781 30.0333 54.8781 29.9C54.8781 29.7333 55.0281 29.4666 55.3281 29.1C55.6281 28.7 55.8448 28.4333 55.9781 28.3C56.4781 27.8 57.0281 27.35 57.6281 26.95C58.2615 26.55 58.8448 26.35 59.3781 26.35C60.2115 26.35 60.8615 26.8166 61.3281 27.75C61.7948 28.65 62.1281 29.8 62.3281 31.2C62.5281 32.5666 62.6281 33.95 62.6281 35.35C62.6281 36.05 62.6115 36.7333 62.5781 37.4C62.5448 38.0333 62.4948 38.6166 62.4281 39.15C62.7281 38.3166 63.1115 37.3333 63.5781 36.2C64.0448 35.0333 64.5781 33.85 65.1781 32.65C65.8115 31.4166 66.4781 30.2666 67.1781 29.2C67.8781 28.1333 68.6281 27.25 69.4281 26.55C69.8948 26.15 70.2448 25.95 70.4781 25.95C70.6781 25.95 70.7781 26.05 70.7781 26.25C70.7781 26.5833 70.4948 27 69.9281 27.5C68.7615 28.5333 67.7781 29.7166 66.9781 31.05C66.1781 32.3833 65.5281 33.75 65.0281 35.15C64.5615 36.55 64.2115 37.8666 63.9781 39.1C63.7448 40.3333 63.5948 41.35 63.5281 42.15C63.4948 42.3833 63.3448 42.6333 63.0781 42.9C62.8115 43.2 62.5281 43.35 62.2281 43.35Z" fill="white"/>
<path d="M74.1074 40.65C72.9074 40.65 71.8574 39.9499 70.9574 38.5499C70.0908 37.1166 69.6574 34.8666 69.6574 31.8C69.6574 29.8 69.9074 28.2 70.4074 27C70.9074 25.7666 71.5241 24.8666 72.2574 24.3C72.9908 23.7333 73.6908 23.45 74.3574 23.45C75.0241 23.45 75.5908 23.6833 76.0574 24.15C76.5241 24.5833 76.7574 25.2166 76.7574 26.05C76.7574 26.85 76.5241 27.7 76.0574 28.6C75.5908 29.4666 75.0241 30.2666 74.3574 31C73.7241 31.7 73.0908 32.1666 72.4574 32.4C72.3241 32.4666 72.1574 32.5 71.9574 32.5C71.8241 32.5 71.7574 32.45 71.7574 32.35C71.7574 32.0833 72.0241 31.7833 72.5574 31.45C73.2241 30.9833 73.8574 30.2833 74.4574 29.35C75.0574 28.3833 75.3574 27.5333 75.3574 26.8C75.3574 26.3666 75.2574 26.0333 75.0574 25.8C74.8574 25.5333 74.6241 25.4 74.3574 25.4C73.8574 25.4 73.3074 25.8 72.7074 26.6C72.1408 27.3666 71.7241 28.7 71.4574 30.6C71.3908 31.1333 71.3241 31.65 71.2574 32.15C71.2241 32.6166 71.2074 33.0833 71.2074 33.5499C71.2074 35.4166 71.4908 36.8833 72.0574 37.95C72.6241 38.9833 73.3741 39.5 74.3074 39.5C75.1074 39.5 76.0074 39.0333 77.0074 38.1C78.0074 37.1333 78.9908 35.6333 79.9574 33.6C80.1908 33.0666 80.4574 32.8 80.7574 32.8C80.9574 32.8 81.0574 32.9333 81.0574 33.2C81.0574 33.4333 80.9908 33.6833 80.8574 33.95C79.9908 36.0833 78.9408 37.7333 77.7074 38.9C76.4741 40.0666 75.2741 40.65 74.1074 40.65Z" fill="white"/>
<path d="M86.7195 42.5C85.6529 42.5 84.8362 42 84.2695 41C83.7029 40.0333 83.4195 38.9666 83.4195 37.7999C83.4195 36.6999 83.6029 35.55 83.9695 34.35C84.3362 33.15 84.7862 31.9666 85.3195 30.8C85.8862 29.6333 86.4695 28.5666 87.0695 27.6C86.4695 27.8333 85.9029 27.95 85.3695 27.95C85.1029 27.95 84.8695 27.9166 84.6695 27.85C84.4695 27.7833 84.3029 27.7333 84.1695 27.7C84.0029 28.1 83.7029 28.7666 83.2695 29.7C82.8695 30.6333 82.4362 31.6166 81.9695 32.65C81.5362 33.65 81.1529 34.5 80.8195 35.2C80.2862 36.3333 79.8195 36.9 79.4195 36.9C79.2195 36.9 79.1195 36.7666 79.1195 36.5C79.1195 36.3 79.2029 36.0333 79.3695 35.7C80.1362 34.2666 80.8529 32.85 81.5195 31.45C82.2195 30.05 82.8529 28.7 83.4195 27.4C83.3529 27.2333 83.2862 27.0166 83.2195 26.75C83.1529 26.45 83.1195 26.1333 83.1195 25.8C83.1195 25.4333 83.1529 25.05 83.2195 24.65C83.3195 24.2166 83.4529 23.8 83.6195 23.4C83.7195 23.1666 83.9029 22.8333 84.1695 22.4C84.4362 21.9333 84.7362 21.5166 85.0695 21.15C85.4029 20.75 85.7195 20.55 86.0195 20.55C86.5862 20.55 86.8695 20.85 86.8695 21.45C86.8695 22.0166 86.6862 22.6666 86.3195 23.4C85.9862 24.1333 85.6362 24.8166 85.2695 25.45C84.9029 26.05 84.7195 26.5 84.7195 26.8C84.7195 27.0666 84.8529 27.2 85.1195 27.2C85.4862 27.2 85.9362 27.0166 86.4695 26.65C87.0362 26.25 87.4862 25.8833 87.8195 25.55C87.9862 25.3833 88.2529 25.1333 88.6195 24.8C88.9862 24.4333 89.3362 24.25 89.6695 24.25C90.0029 24.25 90.2195 24.35 90.3195 24.55C90.4529 24.75 90.5195 24.9833 90.5195 25.25C90.5195 25.55 90.3862 25.9333 90.1195 26.4C89.8529 26.8333 89.5362 27.2666 89.1695 27.7C88.8362 28.1333 88.5529 28.5 88.3195 28.8C87.8529 29.5 87.3195 30.3833 86.7195 31.45C86.1195 32.5166 85.6029 33.6666 85.1695 34.9C84.7362 36.1 84.5195 37.25 84.5195 38.35C84.5195 39.0833 84.7029 39.85 85.0695 40.65C85.4362 41.45 85.9362 41.85 86.5695 41.85C87.1362 41.85 87.7362 41.55 88.3695 40.95C89.0362 40.35 89.6529 39.6333 90.2195 38.7999C90.8195 37.9666 91.3362 37.1666 91.7695 36.4C92.2362 35.6333 92.5529 35.0999 92.7195 34.7999C92.7862 34.6333 92.9029 34.4333 93.0695 34.2C93.2362 33.9333 93.4362 33.7999 93.6695 33.7999C93.8695 33.7999 93.9695 33.9 93.9695 34.1C93.9695 34.2666 93.9195 34.4666 93.8195 34.7C93.7529 34.9 93.6862 35.0833 93.6195 35.25C93.3195 35.95 92.9529 36.6833 92.5195 37.45C92.0862 38.2166 91.7862 38.7333 91.6195 39C91.1529 39.7666 90.4529 40.5333 89.5195 41.2999C88.6195 42.0999 87.6862 42.5 86.7195 42.5Z" fill="white"/>
<path d="M122.237 53.4C121.104 53.4 120.054 53 119.087 52.2C118.12 51.4 117.454 50.3833 117.087 49.15C116.954 48.6833 116.854 48.1833 116.787 47.65C116.754 47.15 116.737 46.6166 116.737 46.0499C116.737 44.2499 116.97 42.2 117.437 39.9C117.937 37.6 118.57 35.1666 119.337 32.6C120.137 30 121.004 27.4 121.937 24.8C122.904 22.1666 123.837 19.6333 124.737 17.2C125.67 14.7333 126.52 12.4666 127.287 10.4C128.054 8.29995 128.654 6.53328 129.087 5.09995C129.32 4.36662 129.437 3.76662 129.437 3.29995C129.437 2.69995 129.237 2.39995 128.837 2.39995C128.337 2.39995 127.57 2.88328 126.537 3.84995C125.504 4.81662 124.32 6.13328 122.987 7.79995C121.654 9.46662 120.27 11.4 118.837 13.6C117.404 15.8 116.037 18.1333 114.737 20.6C113.437 23.0666 112.304 25.5666 111.337 28.1C110.37 30.6333 109.67 33.0833 109.237 35.45C109.204 35.6833 109.17 36.0499 109.137 36.5499C109.104 37.0499 109.02 37.5 108.887 37.9C108.787 38.3 108.57 38.5 108.237 38.5C107.504 38.4666 106.987 38.1 106.687 37.4C106.42 36.7 106.237 36.05 106.137 35.45C105.87 33.6833 105.737 31.6166 105.737 29.25C105.737 27.35 105.82 25.3833 105.987 23.35C106.154 21.3166 106.387 19.3833 106.687 17.55C106.987 15.7166 107.337 14.1666 107.737 12.9C108.004 12.1 108.37 11.3833 108.837 10.75C109.337 10.0833 109.787 9.74995 110.187 9.74995C110.42 9.74995 110.604 9.91662 110.737 10.25C110.904 10.5833 110.97 11.1833 110.937 12.05C110.937 12.4166 110.77 13.1166 110.437 14.15C110.137 15.15 109.77 16.45 109.337 18.05C108.937 19.65 108.587 21.5 108.287 23.6C107.987 25.7 107.837 28.0166 107.837 30.55C107.837 31.75 107.887 32.9999 107.987 34.2999C108.287 33.3666 108.737 32.0666 109.337 30.4C109.97 28.7333 110.737 26.85 111.637 24.75C112.57 22.65 113.604 20.4833 114.737 18.25C115.904 15.9833 117.154 13.7833 118.487 11.65C119.82 9.51662 121.22 7.58328 122.687 5.84995C124.154 4.11662 125.654 2.73328 127.187 1.69995C127.954 1.19995 128.754 0.949951 129.587 0.949951C130.487 0.949951 131.254 1.23328 131.887 1.79995C132.554 2.36662 132.854 3.16662 132.787 4.19995C132.72 5.59995 132.37 7.01662 131.737 8.44995C131.137 9.84995 130.42 11.2166 129.587 12.55C128.787 13.8833 128.037 15.1666 127.337 16.4C126.37 18.1666 125.387 20.1333 124.387 22.3C123.42 24.4666 122.52 26.7333 121.687 29.1C120.887 31.4666 120.237 33.85 119.737 36.25C119.237 38.65 118.987 40.9666 118.987 43.2C118.987 45.0666 119.22 46.8833 119.687 48.65C120.054 49.95 120.504 50.85 121.037 51.35C121.604 51.85 122.154 52.1 122.687 52.1C123.287 52.1 123.837 51.9333 124.337 51.6C124.87 51.2666 125.287 50.9 125.587 50.5C125.92 50.1333 126.07 49.9166 126.037 49.85C126.104 49.8166 126.17 49.7999 126.237 49.7999C126.47 49.7999 126.52 49.95 126.387 50.25C126.287 50.5833 126.137 50.9166 125.937 51.25C125.737 51.6166 125.587 51.85 125.487 51.95C124.987 52.45 124.454 52.8166 123.887 53.0499C123.354 53.2833 122.804 53.4 122.237 53.4Z" fill="white"/>
<path d="M128.406 59.65C127.106 59.65 126.056 59.3 125.256 58.6C124.456 57.9333 124.056 57.0333 124.056 55.9C124.056 54.9 124.34 53.9 124.906 52.9C125.44 51.9333 126.106 51 126.906 50.1C127.74 49.2333 128.573 48.4666 129.406 47.7999C130.873 46.6333 132.606 45.5333 134.606 44.5C136.64 43.4666 138.923 42.6833 141.456 42.15C141.49 41.7833 141.506 41.4 141.506 41C141.506 40.6333 141.506 40.2666 141.506 39.9C141.506 37.2 141.323 34.75 140.956 32.55C140.59 30.3166 140.173 28.4 139.706 26.8C138.373 30.1 137.19 32.8499 136.156 35.0499C135.123 37.2166 134.556 39.0333 134.456 40.5C134.423 40.7333 134.273 40.9833 134.006 41.25C133.773 41.55 133.506 41.7 133.206 41.7C133.006 41.7 132.806 41.5833 132.606 41.35C132.44 41.15 132.323 40.7833 132.256 40.25C132.256 40.1166 132.24 39.9333 132.206 39.7C132.206 39.4666 132.206 39.05 132.206 38.45C132.206 37.85 132.206 36.95 132.206 35.75C132.206 34.6833 132.173 33.6 132.106 32.5C132.073 31.3666 131.956 30.3166 131.756 29.35C131.556 28.3833 131.256 27.6 130.856 27C130.49 26.4 129.973 26.1 129.306 26.1C128.773 26.1 128.273 26.3 127.806 26.7C127.373 27.1 127.006 27.5 126.706 27.9C126.406 28.2666 126.173 28.45 126.006 28.45C125.873 28.45 125.806 28.4 125.806 28.3C125.806 28.2333 125.856 28.1333 125.956 28C126.023 27.8333 126.09 27.7 126.156 27.6C126.456 27.1666 126.84 26.7333 127.306 26.3C127.806 25.8666 128.323 25.5 128.856 25.2C129.423 24.8666 129.923 24.7 130.356 24.7C131.256 24.7 131.956 25.1666 132.456 26.1C132.956 27 133.306 28.15 133.506 29.55C133.74 30.95 133.856 32.3833 133.856 33.85C133.856 34.4833 133.823 35.25 133.756 36.15C133.69 37.05 133.606 37.8166 133.506 38.45C134.173 37.2166 135.023 35.4999 136.056 33.2999C137.09 31.0999 138.223 28.6166 139.456 25.85L139.006 24.55V24.4C139.006 24.0666 139.106 23.8166 139.306 23.65C139.54 23.4833 139.773 23.4 140.006 23.4C140.206 23.4 140.406 23.45 140.606 23.55C140.806 23.65 140.94 23.8 141.006 24C141.406 24.9 141.74 26.1333 142.006 27.7C142.306 29.2666 142.523 30.9666 142.656 32.8C142.823 34.6 142.906 36.3833 142.906 38.15C142.906 39.4833 142.856 40.7333 142.756 41.9C143.59 41.7333 144.473 41.6 145.406 41.5C146.373 41.4 147.206 41.35 147.906 41.35C148.34 41.35 148.556 41.4166 148.556 41.5499C148.556 41.8166 148.206 41.9833 147.506 42.0499C146.706 42.1166 145.89 42.1999 145.056 42.2999C144.256 42.4333 143.44 42.5999 142.606 42.7999C141.906 46.6333 140.806 49.7 139.306 52C137.84 54.3333 136.323 56.0833 134.756 57.25C133.623 58.0833 132.506 58.6833 131.406 59.0499C130.34 59.4499 129.34 59.65 128.406 59.65ZM128.006 58.6C128.573 58.6 129.223 58.4833 129.956 58.25C130.723 58.0166 131.523 57.65 132.356 57.15C135.023 55.5833 137.09 53.6 138.556 51.2C140.023 48.8333 140.956 46.1333 141.356 43.1C139.39 43.6333 137.406 44.4 135.406 45.4C133.44 46.4333 131.64 47.6333 130.006 49C129.273 49.6333 128.54 50.35 127.806 51.15C127.106 51.95 126.523 52.7666 126.056 53.6C125.59 54.4666 125.356 55.3 125.356 56.1C125.356 56.8666 125.59 57.4666 126.056 57.9C126.523 58.3666 127.173 58.6 128.006 58.6Z" fill="white"/>
<path d="M145.846 59.85C144.513 59.85 143.379 59.45 142.446 58.65C141.479 57.8833 140.996 56.8499 140.996 55.5499C140.996 54.2499 141.613 52.7333 142.846 51C144.079 49.2666 146.163 47.4666 149.096 45.6C149.763 45.1333 150.463 44.7166 151.196 44.35C151.963 43.9833 152.746 43.6 153.546 43.2C153.746 43.1 153.896 43.0499 153.996 43.0499C154.129 43.0499 154.196 43.1 154.196 43.2C154.196 43.4333 153.963 43.6833 153.496 43.95C151.896 44.75 150.529 45.5833 149.396 46.45C148.296 47.35 147.279 48.4 146.346 49.6C145.846 50.2333 145.313 50.9666 144.746 51.7999C144.213 52.6666 143.763 53.5166 143.396 54.35C142.996 55.1833 142.796 55.9333 142.796 56.6C142.796 58 143.463 58.7 144.796 58.7C145.363 58.7 146.029 58.5333 146.796 58.2C147.563 57.9 148.396 57.4 149.296 56.7C151.563 54.9333 153.163 52.9666 154.096 50.7999C155.029 48.6666 155.496 46.1666 155.496 43.2999C155.496 41.1666 155.296 38.8 154.896 36.2C154.529 33.5333 154.329 30.9833 154.296 28.55C154.129 29.5833 153.846 30.8333 153.446 32.3C153.079 33.7333 152.629 35.1 152.096 36.4C151.563 37.7 150.963 38.8166 150.296 39.75C149.663 40.6833 148.846 41.15 147.846 41.15C147.146 41.15 146.546 40.8 146.046 40.1C145.579 39.4 145.346 38.3333 145.346 36.9C145.346 35.8333 145.529 34.5666 145.896 33.1C146.263 31.6333 146.763 30.2166 147.396 28.85C148.029 27.45 148.729 26.3 149.496 25.4C150.296 24.4666 151.096 24 151.896 24C152.463 24 152.863 24.2333 153.096 24.7C153.363 25.1333 153.496 25.5833 153.496 26.05C153.496 26.4166 153.429 26.7333 153.296 27C153.163 27.2666 152.963 27.4 152.696 27.4C152.429 27.3666 152.229 27.25 152.096 27.05C151.996 26.8166 151.896 26.6 151.796 26.4C151.696 26.1666 151.513 26.05 151.246 26.05C150.713 26.05 150.196 26.4 149.696 27.1C149.229 27.7666 148.796 28.65 148.396 29.75C148.029 30.8166 147.729 31.9499 147.496 33.1499C147.296 34.3499 147.196 35.45 147.196 36.45C147.196 37.3833 147.296 38.15 147.496 38.75C147.729 39.35 148.079 39.6666 148.546 39.7C149.113 39.7333 149.663 39.3666 150.196 38.6C150.729 37.8333 151.213 36.85 151.646 35.65C152.113 34.45 152.513 33.1833 152.846 31.85C153.213 30.4833 153.513 29.2166 153.746 28.05C154.013 26.85 154.196 25.9166 154.296 25.25C154.563 23.4833 154.813 22.3666 155.046 21.9C155.279 21.4 155.529 21.15 155.796 21.15C156.029 21.15 156.229 21.3666 156.396 21.8C156.596 22.2333 156.696 22.6333 156.696 23C156.696 23.2666 156.679 23.45 156.646 23.55C156.246 25.75 156.046 28 156.046 30.3C156.046 31.2666 156.079 32.2333 156.146 33.2C156.213 34.1333 156.296 35.0666 156.396 36C156.596 37.9333 156.696 39.7333 156.696 41.4C156.696 44.8 156.346 47.6666 155.646 50C154.979 52.3666 154.096 54.2666 152.996 55.7C151.896 57.1666 150.713 58.2166 149.446 58.85C148.213 59.5166 147.013 59.85 145.846 59.85Z" fill="white"/>
<path d="M166.954 42.5C165.887 42.5 165.071 42 164.504 41C163.937 40.0333 163.654 38.9666 163.654 37.7999C163.654 36.6999 163.837 35.55 164.204 34.35C164.571 33.15 165.021 31.9666 165.554 30.8C166.121 29.6333 166.704 28.5666 167.304 27.6C166.704 27.8333 166.137 27.95 165.604 27.95C165.337 27.95 165.104 27.9166 164.904 27.85C164.704 27.7833 164.537 27.7333 164.404 27.7C164.237 28.1 163.937 28.7666 163.504 29.7C163.104 30.6333 162.671 31.6166 162.204 32.65C161.771 33.65 161.387 34.5 161.054 35.2C160.521 36.3333 160.054 36.9 159.654 36.9C159.454 36.9 159.354 36.7666 159.354 36.5C159.354 36.3 159.437 36.0333 159.604 35.7C160.371 34.2666 161.087 32.85 161.754 31.45C162.454 30.05 163.087 28.7 163.654 27.4C163.587 27.2333 163.521 27.0166 163.454 26.75C163.387 26.45 163.354 26.1333 163.354 25.8C163.354 25.4333 163.387 25.05 163.454 24.65C163.554 24.2166 163.687 23.8 163.854 23.4C163.954 23.1666 164.137 22.8333 164.404 22.4C164.671 21.9333 164.971 21.5166 165.304 21.15C165.637 20.75 165.954 20.55 166.254 20.55C166.821 20.55 167.104 20.85 167.104 21.45C167.104 22.0166 166.921 22.6666 166.554 23.4C166.221 24.1333 165.871 24.8166 165.504 25.45C165.137 26.05 164.954 26.5 164.954 26.8C164.954 27.0666 165.087 27.2 165.354 27.2C165.721 27.2 166.171 27.0166 166.704 26.65C167.271 26.25 167.721 25.8833 168.054 25.55C168.221 25.3833 168.487 25.1333 168.854 24.8C169.221 24.4333 169.571 24.25 169.904 24.25C170.237 24.25 170.454 24.35 170.554 24.55C170.687 24.75 170.754 24.9833 170.754 25.25C170.754 25.55 170.621 25.9333 170.354 26.4C170.087 26.8333 169.771 27.2666 169.404 27.7C169.071 28.1333 168.787 28.5 168.554 28.8C168.087 29.5 167.554 30.3833 166.954 31.45C166.354 32.5166 165.837 33.6666 165.404 34.9C164.971 36.1 164.754 37.25 164.754 38.35C164.754 39.0833 164.937 39.85 165.304 40.65C165.671 41.45 166.171 41.85 166.804 41.85C167.371 41.85 167.971 41.55 168.604 40.95C169.271 40.35 169.887 39.6333 170.454 38.7999C171.054 37.9666 171.571 37.1666 172.004 36.4C172.471 35.6333 172.787 35.0999 172.954 34.7999C173.021 34.6333 173.137 34.4333 173.304 34.2C173.471 33.9333 173.671 33.7999 173.904 33.7999C174.104 33.7999 174.204 33.9 174.204 34.1C174.204 34.2666 174.154 34.4666 174.054 34.7C173.987 34.9 173.921 35.0833 173.854 35.25C173.554 35.95 173.187 36.6833 172.754 37.45C172.321 38.2166 172.021 38.7333 171.854 39C171.387 39.7666 170.687 40.5333 169.754 41.2999C168.854 42.0999 167.921 42.5 166.954 42.5Z" fill="white"/>
<path d="M178.096 40.65C176.896 40.65 175.846 39.9499 174.946 38.5499C174.079 37.1166 173.646 34.8666 173.646 31.8C173.646 29.8 173.896 28.2 174.396 27C174.896 25.7666 175.512 24.8666 176.246 24.3C176.979 23.7333 177.679 23.45 178.346 23.45C179.012 23.45 179.579 23.6833 180.046 24.15C180.512 24.5833 180.746 25.2166 180.746 26.05C180.746 26.85 180.512 27.7 180.046 28.6C179.579 29.4666 179.012 30.2666 178.346 31C177.712 31.7 177.079 32.1666 176.446 32.4C176.312 32.4666 176.146 32.5 175.946 32.5C175.812 32.5 175.746 32.45 175.746 32.35C175.746 32.0833 176.012 31.7833 176.546 31.45C177.212 30.9833 177.846 30.2833 178.446 29.35C179.046 28.3833 179.346 27.5333 179.346 26.8C179.346 26.3666 179.246 26.0333 179.046 25.8C178.846 25.5333 178.612 25.4 178.346 25.4C177.846 25.4 177.296 25.8 176.696 26.6C176.129 27.3666 175.712 28.7 175.446 30.6C175.379 31.1333 175.312 31.65 175.246 32.15C175.212 32.6166 175.196 33.0833 175.196 33.5499C175.196 35.4166 175.479 36.8833 176.046 37.95C176.612 38.9833 177.362 39.5 178.296 39.5C179.096 39.5 179.996 39.0333 180.996 38.1C181.996 37.1333 182.979 35.6333 183.946 33.6C184.179 33.0666 184.446 32.8 184.746 32.8C184.946 32.8 185.046 32.9333 185.046 33.2C185.046 33.4333 184.979 33.6833 184.846 33.95C183.979 36.0833 182.929 37.7333 181.696 38.9C180.462 40.0666 179.262 40.65 178.096 40.65Z" fill="white"/>
<path d="M194.658 40.65C194.224 40.65 193.841 40.3833 193.508 39.85C193.174 39.2833 193.008 38.2166 193.008 36.65C193.008 35.4166 193.108 34.0666 193.308 32.6C193.508 31.1 193.724 29.6166 193.958 28.15C194.224 26.6833 194.458 25.3833 194.658 24.25C194.858 23.0833 194.958 22.2333 194.958 21.7C194.958 20.7666 194.674 20.3 194.108 20.3C193.574 20.3 193.024 20.5666 192.458 21.1C191.924 21.6333 191.408 22.2833 190.908 23.05C190.441 23.8166 190.024 24.5666 189.658 25.3C189.324 26 189.108 26.5166 189.008 26.85C188.541 28.15 188.208 29.45 188.008 30.75C187.808 32.0166 187.708 33.3333 187.708 34.7C187.708 35.2666 187.724 35.85 187.758 36.45C187.824 37.05 187.874 37.6666 187.908 38.2999C187.974 38.6333 187.874 39.0499 187.608 39.5499C187.374 40.0166 187.091 40.25 186.758 40.25C186.524 40.25 186.324 40.0999 186.158 39.7999C185.991 39.4999 185.874 39.2333 185.808 39C185.674 38.6 185.574 38.1833 185.508 37.75C185.441 37.2833 185.374 36.8833 185.308 36.5499C185.074 35.1833 184.858 33.8 184.658 32.4C184.458 30.9666 184.174 29.5833 183.808 28.25C183.708 27.8833 183.574 27.5 183.408 27.1C183.274 26.6666 183.058 26.3166 182.758 26.05C182.691 25.9833 182.591 25.9166 182.458 25.85C182.324 25.75 182.258 25.6666 182.258 25.6C182.258 25.4666 182.441 25.4 182.808 25.4C183.208 25.4 183.608 25.6 184.008 26C184.408 26.4 184.774 26.9333 185.108 27.6C185.508 28.4333 185.841 29.3166 186.108 30.25C186.408 31.1833 186.641 31.9333 186.808 32.5C187.008 31.3 187.224 30.2333 187.458 29.3C187.691 28.5 188.008 27.55 188.408 26.45C188.808 25.3166 189.308 24.2166 189.908 23.15C190.508 22.05 191.224 21.15 192.058 20.45C192.891 19.7166 193.858 19.35 194.958 19.35C196.558 19.35 197.358 20.2833 197.358 22.15C197.358 23.1166 197.191 24.1833 196.858 25.35C196.524 26.4833 196.158 27.5333 195.758 28.5C195.391 29.4666 195.141 30.1333 195.008 30.5C194.841 30.9666 194.658 31.5999 194.458 32.4C194.291 33.2 194.141 34.0333 194.008 34.9C193.908 35.7666 193.858 36.5666 193.858 37.2999C193.858 37.9333 193.924 38.4666 194.058 38.9C194.224 39.3 194.474 39.5 194.808 39.5C195.141 39.5 195.441 39.3499 195.708 39.0499C195.974 38.7166 196.191 38.4166 196.358 38.15C196.558 37.8833 196.658 37.8333 196.658 38C196.724 38.5 196.541 39.0666 196.108 39.7C195.708 40.3333 195.224 40.65 194.658 40.65Z" fill="white"/>
</svg>
