<svg width="81" height="92" viewBox="0 0 81 92" fill="none" xmlns="http://www.w3.org/2000/svg">
<path fill-rule="evenodd" clip-rule="evenodd" d="M43.2509 0.738479C41.5486 -0.24616 39.4514 -0.24616 37.7491 0.738479L2.7509 20.9824C1.04864 21.9671 0 23.7868 0 25.756V66.244C0 68.2132 1.04864 70.0329 2.7509 71.0176L37.7491 91.2615C39.4514 92.2462 41.5486 92.2462 43.2509 91.2615L78.2491 71.0176C79.9514 70.0329 81 68.2132 81 66.244V25.756C81 23.7868 79.9514 21.9671 78.2491 20.9824L43.2509 0.738479ZM36.504 68.4692L57.509 45.4939C57.68 45.3122 57.8038 45.0899 57.8693 44.8471C57.9348 44.6042 57.9398 44.3485 57.8839 44.1031C57.828 43.8578 57.713 43.6306 57.5493 43.4421C57.3855 43.2537 57.1783 43.11 56.9464 43.024L46.1438 38.8884L48.882 24.8352C48.9387 24.5126 48.8925 24.1799 48.7503 23.8861C48.6081 23.5923 48.3773 23.3528 48.0918 23.2028C47.8064 23.0528 47.4813 23.0002 47.1645 23.0528C46.8476 23.1054 46.5556 23.2604 46.3314 23.495L25.3264 46.4703C25.1543 46.6526 25.0297 46.8761 24.9642 47.1203C24.8987 47.3645 24.8942 47.6216 24.9513 47.868C25.01 48.1135 25.1259 48.3409 25.2892 48.5309C25.4524 48.7209 25.6582 48.8679 25.889 48.9593L36.6916 53.0949L33.9534 67.129C33.8905 67.4541 33.9311 67.7912 34.0695 68.091C34.2079 68.3907 34.4367 68.6373 34.7224 68.7947C34.9377 68.9056 35.1751 68.9646 35.4163 68.967C35.6219 68.9679 35.8252 68.9239 36.0128 68.838C36.2004 68.7522 36.3679 68.6264 36.504 68.4692Z" fill="#D9D9D9"/>
</svg>
