<svg width="45" height="13" viewBox="0 0 45 13" fill="none" xmlns="http://www.w3.org/2000/svg">
<path d="M43.1325 13C43.3775 13.0002 43.6202 12.9538 43.8466 12.8635C44.0731 12.7731 44.2789 12.6405 44.4523 12.4733C44.6257 12.3061 44.7633 12.1075 44.8573 11.8889C44.9513 11.6703 44.9998 11.436 45 11.1993C45.0003 10.9626 44.9523 10.7281 44.8587 10.5093C44.7652 10.2906 44.628 10.0917 44.4549 9.92416C44.2819 9.75661 44.0763 9.62364 43.8501 9.53283C43.6238 9.44202 43.3813 9.39516 43.1363 9.39493C42.6415 9.39445 42.1668 9.58389 41.8165 9.9216C41.4663 10.2593 41.2693 10.7176 41.2688 11.1957C41.2683 11.6737 41.4644 12.1324 41.8139 12.4708C42.1634 12.8091 42.6377 12.9995 43.1325 13V13ZM41.265 6.28804H39.6713C38.6475 6.28804 38.0963 7.0308 38.0963 8.2663V12.7337H35.0775V6.28804H33.795C32.7694 6.28804 32.22 7.0308 32.22 8.2663V12.7337H29.2013V3.90399H32.22V5.24457C32.715 4.20471 33.3938 3.90399 34.4007 3.90399H38.0982V5.24457C38.5932 4.20471 39.27 3.90399 40.2769 3.90399H41.265V6.28804V6.28804ZM28.5413 9.00725H22.2432C22.4082 9.99638 23.0494 10.5616 24.1294 10.5616C24.9357 10.5616 25.5019 10.2446 25.6857 9.67935L28.3575 10.404C27.6994 11.9402 26.07 12.875 24.1294 12.875C20.8519 12.875 19.35 10.4203 19.35 8.31884C19.35 6.25362 20.6682 3.7808 23.9438 3.7808C27.4238 3.7808 28.5769 6.28804 28.5769 8.14311C28.5769 8.54891 28.5582 8.8134 28.5394 9.00725H28.5413ZM25.6125 7.29529C25.5375 6.53442 24.9713 5.8279 23.9457 5.8279C22.9932 5.8279 22.4269 6.23551 22.2432 7.29529H25.6125V7.29529ZM14.0775 12.7319H16.7325L20.0457 3.90217H17.0082L15.3957 9.04167L13.7494 3.90217H10.725L14.0757 12.7319H14.0775ZM1.70253 12.7319H4.70628V6.28623H7.56378V12.7319H10.5469V3.90217H4.70628V3.35507C4.70628 2.75362 5.14691 2.38406 5.84253 2.38406H7.56378V0H5.34378C3.16503 0 1.70066 1.28986 1.70066 3.17935V3.90399H3.05176e-05V6.28804H1.70253V12.7337V12.7319Z" fill="white"/>
</svg>
