<svg width="21" height="21" viewBox="0 0 21 21" fill="none" xmlns="http://www.w3.org/2000/svg">
<path d="M19.3205 0H1.79437C0.836719 0 0 0.689062 0 1.63547V19.2005C0 20.152 0.836719 21 1.79437 21H19.3153C20.2781 21 21 20.1464 21 19.2005V1.63547C21.0056 0.689062 20.2781 0 19.3205 0ZM6.50953 17.5045H3.50109V8.15063H6.50953V17.5045ZM5.10938 6.72844H5.08781C4.125 6.72844 3.50156 6.01172 3.50156 5.11453C3.50156 4.20094 4.14141 3.50109 5.12578 3.50109C6.11016 3.50109 6.7125 4.19578 6.73406 5.11453C6.73359 6.01172 6.11016 6.72844 5.10938 6.72844ZM17.5045 17.5045H14.4961V12.39C14.4961 11.1647 14.0583 10.3275 12.9698 10.3275C12.1383 10.3275 11.6461 10.89 11.4272 11.438C11.3452 11.6348 11.3231 11.903 11.3231 12.1767V17.5045H8.31469V8.15063H11.3231V9.45234C11.7609 8.82891 12.4448 7.93172 14.0363 7.93172C16.0111 7.93172 17.505 9.23344 17.505 12.0398L17.5045 17.5045Z" fill="white"/>
</svg>
