<svg width="45" height="51" viewBox="0 0 45 51" fill="none" xmlns="http://www.w3.org/2000/svg">
<path fill-rule="evenodd" clip-rule="evenodd" d="M24 0.866035C23.0718 0.330137 21.9282 0.330137 21 0.866035L1.91638 11.884C0.988179 12.4199 0.416382 13.4103 0.416382 14.4821V36.518C0.416382 37.5898 0.988178 38.5801 1.91638 39.116L21 50.134C21.9282 50.6699 23.0718 50.6699 24 50.134L43.0837 39.116C44.0119 38.5801 44.5837 37.5898 44.5837 36.518V14.4821C44.5837 13.4103 44.0119 12.4199 43.0837 11.884L24 0.866035ZM20.3211 37.7291L31.7746 25.2245C31.8679 25.1257 31.9354 25.0047 31.9711 24.8725C32.0068 24.7403 32.0095 24.6012 31.979 24.4676C31.9486 24.3341 31.8858 24.2104 31.7966 24.1079C31.7073 24.0053 31.5943 23.9271 31.4678 23.8803L25.5775 21.6295L27.0705 13.9809C27.1014 13.8053 27.0763 13.6243 26.9987 13.4643C26.9212 13.3044 26.7953 13.1741 26.6397 13.0924C26.484 13.0108 26.3068 12.9822 26.134 13.0108C25.9612 13.0394 25.802 13.1238 25.6797 13.2514L14.2262 25.756C14.1324 25.8552 14.0645 25.9768 14.0287 26.1097C13.993 26.2426 13.9906 26.3826 14.0217 26.5167C14.0537 26.6503 14.1169 26.7741 14.2059 26.8775C14.295 26.9809 14.4072 27.0609 14.533 27.1106L20.4234 29.3615L18.9303 36.9996C18.896 37.1766 18.9182 37.3601 18.9936 37.5232C19.0691 37.6864 19.1939 37.8206 19.3496 37.9062C19.467 37.9666 19.5965 37.9987 19.728 38C19.8401 38.0005 19.951 37.9765 20.0533 37.9298C20.1556 37.8831 20.2469 37.8146 20.3211 37.7291Z" fill="#1F1F1F"/>
</svg>
