<svg width="30" height="25" viewBox="0 0 30 25" fill="none" xmlns="http://www.w3.org/2000/svg">
<path d="M9.2 12.24C10.3733 12.72 11.28 13.4933 11.92 14.56C12.6133 15.5733 12.96 16.8 12.96 18.24C12.96 20.16 12.3467 21.7333 11.12 22.96C9.89333 24.1867 8.37333 24.8 6.56 24.8C4.64 24.8 3.06667 24.1867 1.84 22.96C0.613333 21.7333 0 20.16 0 18.24C0 17.28 0.106667 16.3467 0.32 15.44C0.586667 14.5333 1.06667 13.1733 1.76 11.36L6 0H12.4L9.2 12.24ZM26.16 12.24C27.3333 12.72 28.24 13.4933 28.88 14.56C29.5733 15.5733 29.92 16.8 29.92 18.24C29.92 20.16 29.3067 21.7333 28.08 22.96C26.8533 24.1867 25.3333 24.8 23.52 24.8C21.6 24.8 20.0267 24.1867 18.8 22.96C17.5733 21.7333 16.96 20.16 16.96 18.24C16.96 17.28 17.0667 16.3467 17.28 15.44C17.5467 14.5333 18.0267 13.1733 18.72 11.36L22.96 0H29.36L26.16 12.24Z" fill="black"/>
</svg>
