<svg width="1258" height="1213" viewBox="0 0 1258 1213" fill="none" xmlns="http://www.w3.org/2000/svg">
<path d="M675.188 289.253C686.596 282.706 700.651 282.706 712.059 289.253L946.605 423.868C958.014 430.416 965.041 442.516 965.041 455.611V724.841C965.041 737.936 958.014 750.036 946.605 756.584L712.059 891.199C700.651 897.746 686.596 897.746 675.188 891.199L440.641 756.584C429.233 750.036 422.206 737.936 422.206 724.841V455.611C422.206 442.516 429.233 430.416 440.641 423.868L675.188 289.253Z" fill="#00D8FF" fill-opacity="0.2"/>
<path d="M693.623 624.852C711.345 624.852 725.711 610.486 725.711 592.764C725.711 575.043 711.345 560.677 693.623 560.677C675.902 560.677 661.536 575.043 661.536 592.764C661.536 610.486 675.902 624.852 693.623 624.852Z" fill="#00D8FF"/>
<path d="M693.623 666.334C655.056 667.267 616.586 662.068 579.65 650.932C562.587 645.523 546.673 637.003 532.712 625.801C527.385 621.975 522.948 617.041 519.707 611.338C516.466 605.636 514.497 599.3 513.935 592.764C513.935 571.548 537.243 550.756 576.287 537.151C614.21 525.096 653.834 519.253 693.623 519.849C732.882 519.301 771.975 525.038 809.42 536.843C825.852 542.081 841.227 550.19 854.83 560.793C860.066 564.441 864.436 569.196 867.63 574.721C870.824 580.246 872.764 586.406 873.312 592.764C873.312 614.815 847.257 637.16 805.287 651.048C769.066 661.821 731.407 666.976 693.623 666.334V666.334ZM693.623 535.2C655.557 534.691 617.651 540.245 581.331 551.654C545.393 564.194 529.285 581.341 529.285 592.726C529.285 604.637 546.6 623.363 584.617 636.365C619.952 646.964 656.744 651.898 693.623 650.984C729.772 651.63 765.806 646.739 800.474 636.48C839.941 623.401 857.91 604.65 857.91 592.764C857.263 588.686 855.776 584.786 853.545 581.311C851.314 577.836 848.386 574.861 844.947 572.575C832.776 563.169 819.042 555.983 804.376 551.346C768.554 540.1 731.165 534.649 693.623 535.2V535.2Z" fill="#00D8FF"/>
<path d="M620.721 752.803C614.734 752.94 608.817 751.488 603.574 748.593C585.194 737.991 578.828 707.419 586.542 666.796C595.047 627.92 609.783 590.676 630.18 556.506C649.314 522.225 673.809 491.226 702.736 464.685C715.483 453.066 730.188 443.797 746.169 437.308C751.95 434.599 758.255 433.195 764.639 433.195C771.022 433.195 777.328 434.599 783.108 437.308C802.219 448.32 808.547 482.051 799.627 525.343C790.859 562.109 776.505 597.314 757.066 629.729C738.606 663.605 714.883 694.334 686.782 720.767C673.572 732.842 658.242 742.367 641.565 748.863C634.888 751.34 627.841 752.673 620.721 752.803V752.803ZM643.477 564.13C624.021 596.85 609.897 632.459 601.636 669.62C594.538 707.034 601.353 729.533 611.262 735.258C621.53 741.2 646.455 735.566 676.72 709.126C703.545 683.802 726.188 654.387 743.808 621.977C762.43 590.987 776.199 557.329 784.636 522.172C793.03 481.422 785.778 456.471 775.484 450.541C771.626 449.063 767.504 448.401 763.377 448.598C759.25 448.794 755.209 449.845 751.509 451.683C737.284 457.553 724.205 465.887 712.876 476.301C685.238 501.724 661.84 531.4 643.567 564.207L643.477 564.13Z" fill="#00D8FF"/>
<path d="M766.487 752.97C749.096 752.97 727.007 742.445 704.007 722.666C674.572 695.884 649.664 664.517 630.245 629.78C610.103 596.08 595.483 559.375 586.94 521.056C583.234 504.197 582.548 486.815 584.912 469.716C585.458 463.373 587.39 457.227 590.57 451.712C593.75 446.197 598.101 441.446 603.317 437.796C622.402 426.745 654.785 438.104 687.835 467.444C715.309 493.399 738.64 523.414 757.015 556.442C777.144 589.355 791.917 625.256 800.782 662.804C804.647 680.282 805.243 698.324 802.54 716.018C801.897 722.543 799.851 728.852 796.541 734.513C793.231 740.173 788.736 745.051 783.365 748.811C778.207 751.67 772.382 753.105 766.487 752.97V752.97ZM643.529 622.054C662.158 655.25 685.952 685.27 714.018 710.987C742.884 735.822 765.781 741.162 775.626 735.373C785.893 729.405 793.466 705.044 785.662 665.628C777.113 629.779 762.943 595.51 743.679 564.091C726.145 532.48 703.875 503.74 677.644 478.867C646.532 451.247 621.299 445.073 611.018 451.029C607.814 453.633 605.184 456.873 603.295 460.544C601.406 464.216 600.299 468.239 600.044 472.36C598.003 487.609 598.668 503.099 602.008 518.117C610.226 554.762 624.247 589.859 643.542 622.079L643.529 622.054Z" fill="#00D8FF"/>
<path d="M186.056 15.1082C194.446 10.2821 204.783 10.2821 213.173 15.1082L385.67 114.331C394.06 119.158 399.228 128.077 399.228 137.729V336.175C399.228 345.828 394.06 354.747 385.67 359.573L213.173 458.796C204.783 463.622 194.446 463.622 186.056 458.796L13.5585 359.573C5.16847 354.747 0 345.828 0 336.175V137.729C0 128.077 5.16847 119.158 13.5585 114.331L186.056 15.1082Z" fill="#3178C6" fill-opacity="0.2"/>
<path d="M282.45 145.402H113.906C109.094 145.402 105.192 149.304 105.192 154.116V322.66C105.192 327.472 109.094 331.374 113.906 331.374H282.45C287.262 331.374 291.164 327.472 291.164 322.66V154.116C291.164 149.304 287.262 145.402 282.45 145.402Z" fill="#3178C6"/>
<path fill-rule="evenodd" clip-rule="evenodd" d="M213.089 289.922V310.299C216.791 312.127 220.737 313.413 224.805 314.118C229.506 314.986 234.278 315.413 239.059 315.394C243.718 315.416 248.366 314.946 252.927 313.992C257.021 313.165 260.928 311.589 264.45 309.343C267.72 307.232 270.416 304.343 272.294 300.934C275.659 293.876 276.103 285.775 273.53 278.392C272.444 275.631 270.826 273.11 268.768 270.973C266.558 268.701 264.049 266.741 261.309 265.148C258.154 263.3 254.876 261.672 251.499 260.273C248.842 259.17 246.451 258.099 244.326 257.058C242.438 256.155 240.631 255.09 238.926 253.877C237.59 252.94 236.43 251.776 235.499 250.436C234.694 249.22 234.275 247.79 234.296 246.332C234.279 244.99 234.653 243.672 235.372 242.539C236.154 241.354 237.197 240.363 238.421 239.643C239.917 238.763 241.545 238.128 243.243 237.764C245.327 237.301 247.458 237.078 249.593 237.1C251.388 237.106 253.181 237.235 254.959 237.485C256.879 237.744 258.779 238.137 260.645 238.66C262.542 239.186 264.398 239.852 266.197 240.653C267.943 241.431 269.613 242.369 271.185 243.456V224.44C267.911 223.202 264.516 222.311 261.056 221.784C256.878 221.176 252.659 220.889 248.437 220.927C243.822 220.902 239.22 221.426 234.728 222.488C230.668 223.415 226.808 225.064 223.331 227.356C220.101 229.508 217.434 232.403 215.553 235.798C213.56 239.568 212.574 243.789 212.69 248.052C212.543 253.69 214.4 259.197 217.931 263.594C222.263 268.47 227.725 272.208 233.838 274.48C236.628 275.631 239.229 276.758 241.642 277.861C243.82 278.829 245.912 279.978 247.899 281.294C249.501 282.337 250.908 283.652 252.057 285.18C253.066 286.566 253.602 288.241 253.584 289.955C253.593 291.24 253.264 292.505 252.628 293.622C251.922 294.822 250.929 295.828 249.739 296.551C248.249 297.459 246.62 298.114 244.917 298.49C242.698 298.986 240.429 299.22 238.155 299.188C233.694 299.179 229.268 298.393 225.078 296.863C220.699 295.283 216.639 292.932 213.089 289.922V289.922ZM178.857 239.192H205.424V222.408H131.348V239.192H157.796V313.939H178.857V239.192Z" fill="white"/>
<path d="M89.6815 722.661C93.7256 720.325 98.7082 720.325 102.752 722.661L185.898 770.693C189.942 773.029 192.434 777.346 192.434 782.019V878.082C192.434 882.754 189.942 887.072 185.898 889.408L102.752 937.44C98.7082 939.776 93.7256 939.776 89.6815 937.44L6.53539 889.408C2.49128 887.072 0 882.754 0 878.082V782.019C0 777.346 2.49128 773.029 6.53539 770.693L89.6815 722.661Z" fill="#FFA712" fill-opacity="0.2"/>
<path d="M56.33 862.47L56.9708 861.576L87.2037 804.224L87.2678 803.617L73.942 778.587C73.698 778.129 73.3163 777.759 72.8508 777.53C72.3854 777.302 71.8597 777.225 71.3483 777.311C70.8368 777.397 70.3654 777.642 70.0008 778.011C69.6362 778.38 69.3968 778.854 69.3165 779.367L56.33 862.47Z" fill="#FFC24A"/>
<path d="M56.7069 861.791L57.1894 860.849L87.1095 804.092L73.8175 778.963C73.5983 778.526 73.2435 778.172 72.806 777.954C72.3686 777.735 71.8722 777.665 71.3912 777.752C70.9102 777.84 70.4704 778.081 70.1379 778.439C69.8053 778.797 69.5978 779.254 69.5465 779.74L56.7069 861.791Z" fill="#FFA712"/>
<path d="M96.9823 822.549L106.904 812.37L96.9785 793.443C96.7601 793.035 96.4352 792.695 96.0386 792.458C95.642 792.22 95.1884 792.095 94.7261 792.095C94.2639 792.095 93.8103 792.22 93.4137 792.458C93.0171 792.695 92.6922 793.035 92.4738 793.443L87.1698 803.553V804.416L96.9823 822.549Z" fill="#F4BD62"/>
<path d="M96.8051 822.134L106.452 812.257L96.8051 793.861C96.6473 793.463 96.3775 793.119 96.0285 792.871C95.6795 792.622 95.2662 792.48 94.8382 792.461C94.4103 792.443 93.986 792.548 93.6167 792.765C93.2473 792.982 92.9486 793.301 92.7565 793.684L87.4261 803.972L87.2678 804.496L96.8051 822.134Z" fill="#FFA50E"/>
<path d="M56.3374 862.473L56.6277 862.179L57.6794 861.753L96.3564 823.22L96.8465 821.885L87.1999 803.497L56.3374 862.473V862.473Z" fill="#F6820C"/>
<path d="M98.2188 881.906L133.232 862.383L123.227 800.82C123.155 800.386 122.965 799.98 122.678 799.647C122.391 799.314 122.017 799.067 121.599 798.932C121.18 798.797 120.732 798.78 120.304 798.883C119.877 798.986 119.486 799.205 119.174 799.516L56.33 862.47L91.1355 881.902C92.2176 882.506 93.4361 882.823 94.6753 882.823C95.9144 882.823 97.1329 882.506 98.215 881.902" fill="#FDE068"/>
<path d="M132.911 862.221L122.989 801.122C122.972 800.707 122.832 800.306 122.586 799.971C122.341 799.635 122.002 799.38 121.612 799.238C121.221 799.095 120.798 799.072 120.394 799.17C119.99 799.269 119.625 799.485 119.344 799.791L56.7069 862.353L91.128 881.578C92.2014 882.177 93.4102 882.491 94.6394 882.491C95.8686 882.491 97.0774 882.177 98.1509 881.578L132.911 862.221Z" fill="#FCCA3F"/>
<path d="M98.2188 881.318C97.1367 881.922 95.9182 882.239 94.679 882.239C93.4399 882.239 92.2214 881.922 91.1393 881.318L56.6165 862.176L56.33 862.47L91.1355 881.902C92.2176 882.506 93.4361 882.823 94.6753 882.823C95.9144 882.823 97.1329 882.506 98.215 881.902L133.232 862.383L133.145 861.855L98.2188 881.318Z" fill="#EEAB37"/>
<path opacity="0.2" d="M958.798 860.432C962.661 858.218 967.421 858.218 971.284 860.432L1050.71 905.935C1054.57 908.149 1056.95 912.239 1056.95 916.665V1007.67C1056.95 1012.1 1054.57 1016.19 1050.71 1018.4L971.284 1063.91C967.421 1066.12 962.661 1066.12 958.798 1063.91L879.375 1018.4C875.512 1016.19 873.132 1012.1 873.132 1007.67V916.665C873.132 912.239 875.512 908.149 879.375 905.935L958.798 860.432Z" fill="#E10098"/>
<path d="M924.763 986.388L965.874 915.188L969.565 917.317L928.457 988.521L924.763 986.388Z" fill="#E10098"/>
<path d="M923.916 980.702H1006.14V984.963H923.916V980.702Z" fill="#E10098"/>
<path d="M925.545 983.093L927.674 979.402L968.8 1003.15L966.667 1006.84L925.545 983.093ZM961.271 921.205L963.404 917.518L1004.53 941.263L1002.4 944.954L961.271 921.205Z" fill="#E10098"/>
<path d="M925.556 941.253L966.678 917.507L968.811 921.198L927.685 944.943L925.556 941.253Z" fill="#E10098"/>
<path d="M960.528 917.32L964.219 915.188L1005.33 986.392L1001.64 988.521L960.528 917.32ZM927.179 938.424H931.441V985.914H927.179V938.424Z" fill="#E10098"/>
<path d="M998.645 938.424H1002.91V985.915H998.645V938.424Z" fill="#E10098"/>
<path d="M964.086 1001.81L999.852 981.161L1001.71 984.385L965.946 1005.04L964.086 1001.81Z" fill="#E10098"/>
<path d="M1008.55 987.3C1007.67 988.84 1006.35 990.082 1004.75 990.869C1003.16 991.656 1001.37 991.953 999.611 991.723C997.85 991.493 996.197 990.745 994.861 989.575C993.525 988.405 992.566 986.864 992.106 985.149C991.646 983.433 991.705 981.62 992.276 979.938C992.847 978.257 993.904 976.782 995.313 975.701C996.722 974.62 998.421 973.982 1000.19 973.867C1001.97 973.752 1003.73 974.165 1005.27 975.054C1007.33 976.244 1008.83 978.202 1009.44 980.498C1010.06 982.794 1009.74 985.24 1008.55 987.3M937.038 946.013C936.152 947.553 934.829 948.794 933.237 949.582C931.645 950.369 929.855 950.666 928.094 950.436C926.333 950.206 924.68 949.458 923.344 948.288C922.008 947.117 921.05 945.577 920.589 943.862C920.129 942.146 920.188 940.333 920.759 938.651C921.33 936.969 922.387 935.495 923.796 934.414C925.206 933.333 926.904 932.695 928.676 932.58C930.449 932.465 932.215 932.878 933.753 933.767C935.81 934.957 937.312 936.915 937.927 939.211C938.543 941.507 938.223 943.953 937.038 946.013ZM921.528 987.3C920.639 985.763 920.226 983.996 920.341 982.224C920.456 980.452 921.094 978.753 922.175 977.344C923.256 975.935 924.73 974.878 926.412 974.307C928.094 973.736 929.907 973.677 931.623 974.137C933.338 974.597 934.878 975.556 936.049 976.892C937.219 978.228 937.967 979.881 938.197 981.642C938.427 983.403 938.13 985.193 937.343 986.785C936.555 988.377 935.313 989.699 933.774 990.585C931.714 991.771 929.268 992.091 926.972 991.475C924.676 990.859 922.718 989.358 921.528 987.3M993.044 946.013C992.155 944.476 991.742 942.709 991.857 940.937C991.972 939.165 992.611 937.466 993.692 936.057C994.772 934.648 996.247 933.591 997.929 933.02C999.61 932.449 1001.42 932.39 1003.14 932.85C1004.85 933.31 1006.39 934.269 1007.57 935.605C1008.74 936.941 1009.48 938.594 1009.71 940.355C1009.94 942.116 1009.65 943.906 1008.86 945.498C1008.07 947.09 1006.83 948.412 1005.29 949.298C1003.23 950.484 1000.78 950.804 998.488 950.188C996.192 949.572 994.235 948.071 993.044 946.013M965.041 1012.43C963.266 1012.43 961.531 1011.91 960.055 1010.92C958.579 1009.93 957.428 1008.53 956.749 1006.89C956.069 1005.25 955.892 1003.45 956.238 1001.71C956.584 999.964 957.439 998.365 958.694 997.11C959.95 995.854 961.549 994.999 963.29 994.653C965.031 994.307 966.836 994.485 968.476 995.164C970.116 995.843 971.518 996.994 972.504 998.47C973.49 999.946 974.017 1001.68 974.017 1003.46C974.02 1004.64 973.79 1005.8 973.34 1006.89C972.89 1007.99 972.229 1008.98 971.395 1009.81C970.561 1010.64 969.57 1011.31 968.48 1011.76C967.389 1012.21 966.221 1012.43 965.041 1012.43M965.041 929.825C963.266 929.825 961.531 929.299 960.055 928.312C958.579 927.326 957.428 925.924 956.749 924.284C956.069 922.644 955.892 920.84 956.238 919.099C956.584 917.358 957.439 915.758 958.694 914.503C959.95 913.248 961.549 912.393 963.29 912.047C965.031 911.7 966.836 911.878 968.476 912.557C970.116 913.237 971.518 914.387 972.504 915.863C973.49 917.339 974.017 919.074 974.017 920.85C974.02 922.029 973.79 923.198 973.34 924.288C972.89 925.379 972.229 926.37 971.395 927.204C970.561 928.038 969.57 928.699 968.48 929.149C967.389 929.598 966.221 929.828 965.041 929.825" fill="#E10098"/>
<path opacity="0.2" d="M1159.85 501.413C1163.71 499.2 1168.47 499.2 1172.33 501.413L1251.76 546.917C1255.62 549.13 1258 553.221 1258 557.647V648.654C1258 653.081 1255.62 657.171 1251.76 659.384L1172.33 704.888C1168.47 707.101 1163.71 707.101 1159.85 704.888L1080.43 659.384C1076.56 657.171 1074.18 653.081 1074.18 648.654V557.647C1074.18 553.221 1076.56 549.13 1080.43 546.917L1159.85 501.413Z" fill="#2D2D2D"/>
<path d="M1164.45 557.196C1163.78 557.196 1163.26 557.2 1163.08 557.223C1162.62 557.27 1162.15 557.312 1161.69 557.349C1148.64 558.521 1136.41 565.564 1128.67 576.39C1124.39 582.332 1121.6 589.22 1120.55 596.468C1120.19 598.992 1120.14 599.739 1120.14 603.158C1120.14 606.578 1120.19 607.329 1120.55 609.852C1123.05 627.108 1135.34 641.607 1151.99 646.98C1154.97 647.937 1158.12 648.596 1161.69 648.99C1163.08 649.143 1169.1 649.143 1170.5 648.99C1176.67 648.308 1181.9 646.78 1187.05 644.15C1187.85 643.744 1188 643.636 1187.89 643.544C1187.82 643.495 1184.45 638.976 1180.41 633.511L1173.06 623.585L1163.85 609.96C1160.79 605.401 1157.7 600.861 1154.58 596.342C1154.54 596.334 1154.51 602.389 1154.49 609.783C1154.46 622.727 1154.45 623.244 1154.29 623.551C1154.13 623.909 1153.85 624.2 1153.5 624.37C1153.21 624.512 1152.96 624.539 1151.6 624.539H1150.05L1149.63 624.278C1149.38 624.118 1149.17 623.892 1149.03 623.623L1148.84 623.217L1148.86 605.207L1148.89 587.189L1149.16 586.837C1149.35 586.617 1149.58 586.431 1149.83 586.289C1150.2 586.109 1150.34 586.094 1151.9 586.094C1153.73 586.094 1154.04 586.163 1154.51 586.684C1158.24 592.23 1161.93 597.797 1165.6 603.384C1171.64 612.539 1177.68 621.692 1183.73 630.842L1191.01 641.867L1191.37 641.626C1194.88 639.298 1198.05 636.512 1200.82 633.343C1206.61 626.716 1210.36 618.56 1211.63 609.852C1212 607.325 1212.05 606.582 1212.05 603.158C1212.05 599.739 1212 598.992 1211.63 596.468C1209.13 579.212 1196.85 564.714 1180.2 559.341C1177.08 558.351 1173.88 557.68 1170.63 557.338C1168.57 557.241 1166.51 557.193 1164.46 557.196H1164.45ZM1180.03 584.834C1181.36 584.834 1181.6 584.853 1181.9 585.014C1182.11 585.122 1182.3 585.271 1182.46 585.453C1182.61 585.636 1182.73 585.847 1182.8 586.075C1182.87 586.305 1182.89 591.302 1182.87 602.557L1182.85 618.71L1180 614.344L1177.14 609.979V598.237C1177.14 590.647 1177.18 586.377 1177.23 586.174C1177.3 585.935 1177.41 585.711 1177.56 585.516C1177.71 585.321 1177.91 585.159 1178.12 585.041C1178.49 584.849 1178.62 584.834 1180.04 584.834H1180.03Z" fill="#2D2D2D"/>
<path d="M1021.93 2.44378C1027.61 -0.814595 1034.6 -0.814594 1040.27 2.44379L1156.92 69.4353C1162.6 72.6937 1166.09 78.7154 1166.09 85.2322V219.215C1166.09 225.732 1162.6 231.754 1156.92 235.012L1040.27 302.004C1034.6 305.262 1027.61 305.262 1021.93 302.004L905.279 235.012C899.605 231.754 896.11 225.732 896.11 219.215V85.2322C896.11 78.7154 899.605 72.6937 905.279 69.4353L1021.93 2.44378Z" fill="#91C86F" fill-opacity="0.2"/>
<g clip-path="url(#clip0_4_196)">
<path d="M1031.09 221.155C1029.25 221.155 1027.41 220.673 1025.79 219.736L1008.93 209.759C1006.41 208.351 1007.64 207.851 1008.47 207.559C1011.83 206.392 1012.51 206.122 1016.1 204.089C1016.47 203.876 1016.96 203.957 1017.35 204.187L1030.31 211.878C1030.55 212.006 1030.82 212.073 1031.09 212.073C1031.36 212.073 1031.63 212.006 1031.87 211.878L1082.39 182.72C1082.63 182.578 1082.82 182.378 1082.96 182.138C1083.09 181.898 1083.16 181.628 1083.16 181.353V123.048C1083.16 122.769 1083.09 122.494 1082.95 122.25C1082.81 122.007 1082.61 121.803 1082.37 121.658L1031.88 92.5233C1031.64 92.3905 1031.37 92.3208 1031.1 92.3208C1030.83 92.3208 1030.56 92.3905 1030.32 92.5233L979.833 121.664C979.592 121.807 979.392 122.009 979.252 122.252C979.112 122.494 979.037 122.769 979.034 123.048V181.353C979.035 181.629 979.11 181.899 979.25 182.136C979.391 182.374 979.592 182.569 979.833 182.703L993.671 190.699C1001.18 194.456 1005.78 190.033 1005.78 185.587V128.023C1005.78 127.207 1006.43 126.57 1007.25 126.57H1013.66C1014.45 126.57 1015.12 127.213 1015.12 128.023V185.587C1015.12 195.61 1009.66 201.355 1000.16 201.355C997.244 201.355 994.94 201.355 988.524 198.19L975.266 190.567C973.654 189.628 972.317 188.284 971.388 186.667C970.459 185.05 969.97 183.218 969.97 181.353V123.048C969.97 119.263 971.997 115.724 975.266 113.84L1025.79 84.6479C1027.41 83.7574 1029.24 83.2907 1031.09 83.2907C1032.95 83.2907 1034.78 83.7574 1036.4 84.6479L1086.92 113.84C1090.19 115.73 1092.23 119.263 1092.23 123.048V181.353C1092.22 183.219 1091.73 185.051 1090.8 186.667C1089.87 188.284 1088.53 189.628 1086.92 190.567L1036.4 219.736C1034.79 220.673 1032.96 221.155 1031.09 221.155V221.155ZM1071.88 163.672C1071.88 152.758 1064.5 149.851 1048.98 147.801C1033.29 145.727 1031.69 144.653 1031.69 140.982C1031.69 137.949 1033.04 133.899 1044.66 133.899C1055.04 133.899 1058.87 136.134 1060.44 143.131C1060.51 143.454 1060.69 143.743 1060.95 143.951C1061.21 144.159 1061.53 144.272 1061.86 144.274H1068.42C1068.62 144.272 1068.81 144.229 1069 144.15C1069.18 144.07 1069.35 143.954 1069.48 143.808C1069.62 143.658 1069.73 143.48 1069.79 143.286C1069.86 143.092 1069.89 142.887 1069.87 142.682C1068.85 130.631 1060.84 125.013 1044.66 125.013C1030.26 125.013 1021.66 131.09 1021.66 141.287C1021.66 152.344 1030.21 155.4 1044.04 156.767C1060.58 158.387 1061.86 160.806 1061.86 164.057C1061.86 169.704 1057.33 172.11 1046.68 172.11C1033.32 172.11 1030.38 168.756 1029.39 162.104C1029.33 161.758 1029.16 161.444 1028.89 161.217C1028.62 160.991 1028.29 160.867 1027.94 160.869H1021.4C1021.21 160.867 1021.02 160.904 1020.85 160.976C1020.67 161.049 1020.51 161.156 1020.37 161.291C1020.24 161.426 1020.13 161.587 1020.05 161.764C1019.98 161.941 1019.94 162.131 1019.95 162.322C1019.95 170.835 1024.57 180.98 1046.68 180.98C1062.7 180.985 1071.88 174.684 1071.88 163.672V163.672Z" fill="#91C86F"/>
</g>
<path d="M439.054 867.306C445.512 863.586 453.469 863.586 459.928 867.306L592.714 943.777C599.172 947.497 603.151 954.371 603.151 961.809V1114.75C603.151 1122.19 599.172 1129.07 592.714 1132.78L459.928 1209.26C453.469 1212.98 445.512 1212.98 439.054 1209.26L306.268 1132.78C299.81 1129.07 295.831 1122.19 295.831 1114.75V961.809C295.831 954.371 299.81 947.497 306.268 943.777L439.054 867.306Z" fill="#F24E1E" fill-opacity="0.2"/>
<g clip-path="url(#clip1_4_196)">
<path d="M424.36 1114.39C438.232 1114.39 449.491 1103.03 449.491 1089.02V1063.65H424.36C410.487 1063.65 399.228 1075.02 399.228 1089.02C399.228 1103.03 410.487 1114.39 424.36 1114.39Z" fill="#0ACF83"/>
<path d="M399.228 1038.28C399.228 1024.28 410.487 1012.91 424.36 1012.91H449.491V1063.65H424.36C410.487 1063.65 399.228 1052.29 399.228 1038.28Z" fill="#A259FF"/>
<path d="M399.228 987.54C399.228 973.535 410.487 962.169 424.36 962.169H449.491V1012.91H424.36C410.487 1012.91 399.228 1001.54 399.228 987.54Z" fill="#F24E1E"/>
<path d="M449.491 962.169H474.622C488.494 962.169 499.753 973.535 499.753 987.54C499.753 1001.54 488.494 1012.91 474.622 1012.91H449.491V962.169Z" fill="#FF7262"/>
<path d="M499.753 1038.28C499.753 1052.29 488.494 1063.65 474.622 1063.65C460.75 1063.65 449.491 1052.29 449.491 1038.28C449.491 1024.28 460.75 1012.91 474.622 1012.91C488.494 1012.91 499.753 1024.28 499.753 1038.28Z" fill="#1ABCFE"/>
</g>
<defs>
<clipPath id="clip0_4_196">
<rect width="137.863" height="137.863" fill="white" transform="translate(962.169 83.2922)"/>
</clipPath>
<clipPath id="clip1_4_196">
<rect width="100.525" height="152.224" fill="white" transform="translate(399.228 962.169)"/>
</clipPath>
</defs>
</svg>
