<svg width="22" height="21" viewBox="0 0 22 21" fill="none" xmlns="http://www.w3.org/2000/svg">
<path d="M21.4081 9.67361L16.97 13.3292L18.3741 18.9778C18.4386 19.2146 18.4475 19.4628 18.4 19.7035C18.3525 19.9442 18.2499 20.1709 18.1001 20.3662C17.9502 20.5615 17.7572 20.7202 17.5357 20.8301C17.3143 20.9399 17.0704 20.9981 16.8227 21C16.5193 20.9986 16.2228 20.9109 15.9684 20.7472L11.0098 17.6458H10.9902L6.38507 20.5333C6.08758 20.7192 5.74086 20.8129 5.38927 20.8025C5.03768 20.7921 4.69721 20.6781 4.41145 20.475C4.11705 20.2623 3.89407 19.9668 3.77149 19.627C3.64891 19.2872 3.63241 18.9187 3.72412 18.5694L5.04969 13.4069L0.59186 9.67361C0.338948 9.46436 0.155139 9.1849 0.0641326 8.87125C-0.0268735 8.5576 -0.0209037 8.22415 0.0812721 7.91389C0.180771 7.60832 0.370586 7.33934 0.626162 7.14174C0.881738 6.94415 1.19132 6.82704 1.51485 6.80556L7.30806 6.43611L9.50751 1.01111C9.62547 0.714003 9.83078 0.458795 10.0969 0.278526C10.363 0.0982569 10.6776 0.0012278 11 0C11.3224 0.0012278 11.637 0.0982569 11.9031 0.278526C12.1692 0.458795 12.3745 0.714003 12.4925 1.01111L14.6527 6.40694L20.4852 6.80556C20.8091 6.82573 21.1193 6.94235 21.3751 7.14013C21.6309 7.33791 21.8204 7.60762 21.9187 7.91389C22.0209 8.22415 22.0269 8.5576 21.9359 8.87125C21.8449 9.1849 21.6611 9.46436 21.4081 9.67361V9.67361Z" fill="#F9C642"/>
</svg>
