<svg width="123" height="33" viewBox="0 0 123 33" fill="none" xmlns="http://www.w3.org/2000/svg">
<path d="M8.01879 22.5609C8.7792 22.5609 9.40134 22.5036 9.88524 22.3892C10.3922 22.2518 10.7954 22.0801 11.095 21.8741C11.3945 21.6452 11.6019 21.3819 11.7171 21.0843C11.8323 20.7867 11.8899 20.4547 11.8899 20.0885C11.8899 19.3101 11.5213 18.6691 10.7839 18.1655C10.0465 17.6389 8.77919 17.078 6.98188 16.4828C6.19843 16.2081 5.41499 15.8991 4.63154 15.5557C3.8481 15.1894 3.1453 14.743 2.52315 14.2164C1.90101 13.667 1.39407 13.0146 1.00235 12.2591C0.610626 11.4807 0.414765 10.5421 0.414765 9.44329C0.414765 8.34443 0.622148 7.36004 1.03691 6.49011C1.45168 5.59729 2.03926 4.84183 2.79966 4.22372C3.56007 3.60562 4.48177 3.13632 5.56477 2.81582C6.64776 2.47242 7.86902 2.30073 9.22852 2.30073C10.8415 2.30073 12.2356 2.47242 13.4107 2.81582C14.5859 3.15921 15.5537 3.53694 16.3141 3.94901L14.7587 8.17274C14.0905 7.82934 13.3416 7.53174 12.5121 7.27992C11.7056 7.0052 10.7263 6.86785 9.57416 6.86785C8.28378 6.86785 7.35056 7.05099 6.7745 7.41727C6.22148 7.76067 5.94497 8.29865 5.94497 9.03122C5.94497 9.46618 6.04866 9.83247 6.25604 10.1301C6.46342 10.4277 6.75145 10.7024 7.12013 10.9542C7.51186 11.1831 7.94967 11.4006 8.43356 11.6067C8.94049 11.7898 9.49351 11.9844 10.0926 12.1904C11.3369 12.6483 12.4199 13.1061 13.3416 13.564C14.2633 13.999 15.0237 14.514 15.6228 15.1093C16.245 15.7045 16.7058 16.4027 17.0054 17.204C17.3049 18.0052 17.4547 18.9781 17.4547 20.1228C17.4547 22.3434 16.6713 24.0718 15.1044 25.308C13.5375 26.5213 11.1756 27.128 8.01879 27.128C6.95884 27.128 6.00257 27.0593 5.15 26.922C4.29743 26.8075 3.53702 26.6587 2.86879 26.4755C2.2236 26.2924 1.65906 26.0978 1.17517 25.8918C0.714318 25.6857 0.322595 25.4912 0 25.308L1.52081 21.0499C2.23512 21.4391 3.11074 21.794 4.14765 22.1145C5.20761 22.4121 6.49799 22.5609 8.01879 22.5609Z" fill="white"/>
<path d="M21.085 4.08637L26.235 3.26223V8.58481H32.4219V12.8429H26.235V19.1956C26.235 20.2716 26.4193 21.1301 26.788 21.7711C27.1797 22.4121 27.9516 22.7326 29.1038 22.7326C29.6568 22.7326 30.2213 22.6868 30.7974 22.5952C31.3965 22.4807 31.938 22.3319 32.4219 22.1488L33.1477 26.1322C32.5256 26.384 31.8343 26.6015 31.0739 26.7846C30.3135 26.9677 29.3803 27.0593 28.2742 27.0593C26.8686 27.0593 25.705 26.8762 24.7833 26.5099C23.8616 26.1207 23.1242 25.5942 22.5712 24.9303C22.0182 24.2435 21.6265 23.4194 21.396 22.4579C21.1887 21.4964 21.085 20.4318 21.085 19.2643V4.08637Z" fill="white"/>
<path d="M47.5724 13.1176C47.1116 13.0031 46.5701 12.8887 45.9479 12.7742C45.3258 12.6368 44.6576 12.5682 43.9432 12.5682C43.6206 12.5682 43.2289 12.6025 42.7681 12.6712C42.3303 12.717 41.9961 12.7742 41.7657 12.8429V26.6472H36.6157V9.54631C37.5374 9.22581 38.6204 8.9282 39.8647 8.65348C41.132 8.35588 42.5376 8.20708 44.0815 8.20708C44.358 8.20708 44.6921 8.22997 45.0838 8.27575C45.4756 8.29865 45.8673 8.34443 46.259 8.41311C46.6507 8.4589 47.0424 8.52757 47.4342 8.61915C47.8259 8.68783 48.16 8.7794 48.4365 8.89386L47.5724 13.1176Z" fill="white"/>
<path d="M68.4187 8.58481C67.3818 12.0645 66.2988 15.3267 65.1697 18.3715C64.0406 21.4162 62.8078 24.3694 61.4714 27.231C60.9875 28.2612 60.5036 29.1311 60.0197 29.8408C59.5358 30.5734 59.0058 31.1686 58.4298 31.6264C57.8537 32.1072 57.197 32.4506 56.4596 32.6566C55.7453 32.8855 54.9043 33 53.9365 33C53.13 33 52.3811 32.9199 51.6898 32.7596C51.0216 32.6223 50.4686 32.462 50.0308 32.2789L50.9294 28.1925C51.4594 28.3757 51.9318 28.5016 52.3465 28.5702C52.7613 28.6389 53.1991 28.6733 53.66 28.6733C54.5817 28.6733 55.2845 28.4214 55.7684 27.9178C56.2753 27.437 56.7016 26.7617 57.0472 25.8918C55.872 23.6025 54.6969 21.0385 53.5217 18.1998C52.3465 15.3382 51.2405 12.1332 50.2036 8.58481H55.6647C55.8951 9.47763 56.1601 10.4506 56.4596 11.5036C56.7822 12.5338 57.1163 13.5869 57.462 14.6629C57.8076 15.7159 58.1533 16.7461 58.4989 17.7534C58.8676 18.7607 59.2132 19.6764 59.5358 20.5005C59.8354 19.6764 60.1464 18.7607 60.469 17.7534C60.7916 16.7461 61.1027 15.7159 61.4022 14.6629C61.7248 13.5869 62.0244 12.5338 62.3009 11.5036C62.6005 10.4506 62.8654 9.47763 63.0959 8.58481H68.4187Z" fill="white"/>
<path d="M78.4379 26.9906C76.9401 26.9677 75.7188 26.8075 74.7741 26.5099C73.8524 26.2123 73.115 25.8002 72.562 25.2737C72.032 24.7242 71.6634 24.0718 71.456 23.3163C71.2716 22.538 71.1795 21.6681 71.1795 20.7066V0.824141L76.3295 0V19.6764C76.3295 20.1342 76.364 20.5463 76.4332 20.9126C76.5023 21.2789 76.629 21.5879 76.8134 21.8398C77.0207 22.0916 77.3088 22.2976 77.6775 22.4579C78.0461 22.6181 78.5416 22.7211 79.1637 22.7669L78.4379 26.9906Z" fill="white"/>
<path d="M87.2657 26.6472H82.1157V8.58481H87.2657V26.6472ZM87.7496 3.36524C87.7496 4.30385 87.4385 5.04787 86.8163 5.59729C86.2172 6.12383 85.5029 6.3871 84.6734 6.3871C83.8439 6.3871 83.118 6.12383 82.4959 5.59729C81.8968 5.04787 81.5972 4.30385 81.5972 3.36524C81.5972 2.42664 81.8968 1.69407 82.4959 1.16753C83.118 0.618106 83.8439 0.343392 84.6734 0.343392C85.5029 0.343392 86.2172 0.618106 86.8163 1.16753C87.4385 1.69407 87.7496 2.42664 87.7496 3.36524Z" fill="white"/>
<path d="M91.9339 4.08637L97.0839 3.26223V8.58481H103.271V12.8429H97.0839V19.1956C97.0839 20.2716 97.2683 21.1301 97.637 21.7711C98.0287 22.4121 98.8006 22.7326 99.9527 22.7326C100.506 22.7326 101.07 22.6868 101.646 22.5952C102.245 22.4807 102.787 22.3319 103.271 22.1488L103.997 26.1322C103.375 26.384 102.683 26.6015 101.923 26.7846C101.162 26.9677 100.229 27.0593 99.1232 27.0593C97.7176 27.0593 96.554 26.8762 95.6322 26.5099C94.7105 26.1207 93.9732 25.5942 93.4202 24.9303C92.8672 24.2435 92.4754 23.4194 92.245 22.4579C92.0376 21.4964 91.9339 20.4318 91.9339 19.2643V4.08637Z" fill="white"/>
<path d="M105.926 17.7534C105.926 16.1509 106.167 14.7544 106.651 13.564C107.158 12.3507 107.815 11.3434 108.621 10.5421C109.428 9.7409 110.35 9.13424 111.387 8.72216C112.447 8.31009 113.53 8.10406 114.636 8.10406C117.216 8.10406 119.256 8.89386 120.753 10.4735C122.251 12.0302 123 14.3309 123 17.3757C123 17.6733 122.988 18.0052 122.965 18.3715C122.942 18.7149 122.919 19.0239 122.896 19.2986H111.214C111.329 20.3517 111.824 21.1873 112.7 21.8054C113.576 22.4235 114.751 22.7326 116.225 22.7326C117.17 22.7326 118.092 22.6524 118.991 22.4922C119.912 22.3091 120.661 22.0916 121.237 21.8398L121.929 25.9948C121.652 26.1322 121.283 26.2695 120.822 26.4069C120.362 26.5442 119.843 26.6587 119.267 26.7503C118.714 26.8647 118.115 26.9563 117.47 27.025C116.825 27.0937 116.179 27.128 115.534 27.128C113.898 27.128 112.47 26.8876 111.248 26.4069C110.05 25.9261 109.048 25.2737 108.241 24.4495C107.458 23.6025 106.87 22.6067 106.479 21.462C106.11 20.3174 105.926 19.0812 105.926 17.7534ZM118.023 15.796C118 15.3611 117.919 14.9376 117.781 14.5255C117.666 14.1134 117.47 13.7471 117.193 13.4266C116.94 13.1061 116.606 12.8429 116.191 12.6368C115.799 12.4308 115.304 12.3278 114.705 12.3278C114.129 12.3278 113.633 12.4308 113.218 12.6368C112.804 12.82 112.458 13.0718 112.182 13.3923C111.905 13.7128 111.686 14.0905 111.525 14.5255C111.387 14.9376 111.283 15.3611 111.214 15.796H118.023Z" fill="white"/>
</svg>
