<?xml version="1.0" standalone="no"?>
<!DOCTYPE svg PUBLIC "-//W3C//DTD SVG 20010904//EN"
 "http://www.w3.org/TR/2001/REC-SVG-20010904/DTD/svg10.dtd">
<svg version="1.0" xmlns="http://www.w3.org/2000/svg"
 width="736.000000pt" height="736.000000pt" viewBox="0 0 736.000000 736.000000"
 preserveAspectRatio="xMidYMid meet">
<metadata>
Created by potrace 1.14, written by Peter Selinger 2001-2017
</metadata>
<g transform="translate(0.000000,736.000000) scale(0.100000,-0.100000)"
fill="#000000" stroke="none">
<path d="M3564 7345 c-48 -14 -105 -44 -339 -180 -95 -55 -117 -68 -199 -114
-33 -19 -87 -51 -131 -78 -11 -7 -42 -24 -70 -39 -27 -14 -57 -31 -65 -38 -8
-6 -24 -16 -35 -22 -11 -6 -95 -54 -187 -107 -92 -54 -170 -97 -172 -97 -3 0
-25 -13 -49 -30 -25 -16 -48 -30 -51 -30 -3 0 -30 -16 -60 -35 -30 -19 -57
-35 -60 -35 -3 0 -30 -16 -60 -35 -30 -19 -59 -35 -64 -35 -4 0 -14 -6 -21
-12 -6 -7 -15 -13 -19 -13 -4 0 -30 -14 -57 -31 -106 -66 -384 -224 -394 -224
-6 0 -11 -4 -11 -9 0 -5 -8 -11 -17 -15 -10 -3 -31 -14 -48 -24 -16 -10 -57
-34 -90 -52 -33 -18 -62 -36 -65 -39 -3 -4 -16 -12 -30 -18 -14 -7 -47 -26
-75 -42 -27 -17 -63 -38 -80 -47 -150 -83 -488 -284 -519 -308 -55 -44 -110
-130 -135 -210 -21 -68 -21 -68 -21 -1745 0 -1822 -3 -1722 56 -1832 39 -72
104 -134 200 -191 68 -40 338 -196 414 -239 14 -8 27 -16 30 -19 3 -3 23 -15
45 -26 22 -12 128 -72 235 -135 107 -62 205 -118 217 -123 13 -6 23 -14 23
-18 0 -5 4 -8 9 -8 9 0 152 -80 161 -90 3 -3 21 -13 40 -22 19 -9 51 -27 70
-40 19 -13 50 -30 68 -37 17 -7 32 -17 32 -22 0 -5 4 -9 10 -9 5 0 71 -36 146
-80 75 -44 141 -80 145 -80 5 0 9 -4 9 -10 0 -5 5 -10 11 -10 6 0 48 -22 95
-50 47 -27 89 -50 94 -50 6 0 10 -4 10 -8 0 -5 16 -14 35 -22 19 -8 35 -17 35
-22 0 -4 4 -8 9 -8 9 0 214 -118 521 -298 52 -31 97 -57 100 -57 3 0 19 -9 35
-19 61 -39 101 -62 130 -76 17 -8 32 -17 35 -20 3 -3 23 -13 45 -22 143 -60
285 -47 430 41 110 66 296 171 304 171 5 0 11 3 13 8 4 10 165 102 178 102 5
0 10 3 10 8 0 4 10 12 23 18 45 22 243 137 260 152 9 8 17 12 17 8 0 -4 12 1
28 12 15 10 144 87 287 169 143 83 373 216 510 296 221 128 298 172 370 211
11 6 22 13 25 16 3 3 19 12 35 20 17 8 32 17 35 20 3 3 89 53 191 112 103 59
201 115 217 125 109 64 259 149 272 154 32 14 131 121 156 172 57 110 54 14
51 1853 l-2 1700 -38 77 c-62 124 -93 151 -357 302 -85 49 -156 93 -158 97 -2
4 -8 8 -12 8 -8 0 -159 85 -308 173 -26 15 -59 33 -74 39 -16 7 -28 16 -28 20
0 4 -4 8 -10 8 -5 0 -34 16 -65 35 -30 20 -55 33 -55 30 0 -3 -6 -1 -12 5 -23
20 -318 188 -318 182 0 -4 -4 -2 -8 4 -9 13 -129 84 -143 84 -5 0 -9 4 -9 8 0
4 -12 13 -27 20 -16 6 -41 20 -58 30 -16 10 -51 30 -77 45 -25 14 -64 37 -87
51 -22 14 -45 26 -51 26 -5 0 -10 4 -10 10 0 5 -3 9 -7 8 -5 -1 -19 5 -33 13
-32 21 -200 119 -265 154 -27 15 -62 36 -77 46 -14 11 -33 19 -42 19 -9 0 -16
4 -16 8 0 5 -18 17 -40 28 -22 10 -40 22 -40 27 0 4 -4 7 -10 7 -5 0 -70 36
-146 80 -75 44 -137 80 -139 80 -3 0 -118 67 -155 90 -64 40 -221 120 -245
125 -65 14 -181 14 -231 0z m727 -1845 c53 -29 72 -97 49 -181 -6 -19 -12 -49
-14 -65 -5 -36 -41 -223 -55 -284 -8 -40 -14 -71 -26 -145 -4 -22 -21 -106
-30 -145 -3 -14 -7 -36 -9 -50 -4 -21 -32 -165 -51 -260 -3 -14 -8 -43 -11
-65 -3 -22 -7 -44 -8 -48 0 -4 58 -30 129 -58 72 -27 139 -53 150 -58 11 -5
58 -23 105 -41 47 -17 112 -42 145 -55 74 -28 98 -38 105 -40 3 -1 16 -6 30
-12 14 -6 66 -25 115 -44 50 -18 101 -42 114 -53 54 -48 58 -120 10 -176 -33
-37 -256 -282 -329 -361 -14 -15 -59 -64 -100 -110 -41 -45 -90 -99 -109 -118
-18 -20 -64 -70 -101 -111 -80 -88 -104 -114 -179 -196 -70 -75 -133 -145
-236 -258 -44 -49 -96 -106 -115 -127 -19 -20 -64 -69 -100 -109 -36 -39 -81
-88 -100 -109 -19 -21 -75 -82 -125 -137 -181 -200 -217 -234 -255 -238 -19
-2 -43 0 -55 4 -30 12 -65 45 -65 63 0 9 -4 19 -10 22 -14 8 -2 80 90 535 16
80 32 159 35 175 4 28 7 42 20 105 2 14 7 36 9 50 3 14 14 72 26 130 12 58 24
123 27 145 l4 40 -128 48 c-70 27 -137 52 -148 56 -52 21 -113 45 -275 106
-96 36 -184 69 -195 74 -11 5 -31 13 -45 18 -78 30 -118 56 -133 88 -27 56
-13 104 49 171 16 17 65 70 109 118 44 49 96 105 115 126 19 20 67 72 105 115
39 42 84 92 100 110 17 17 66 71 110 119 44 49 94 103 110 120 31 34 74 81
210 231 44 49 94 103 110 120 17 18 64 69 105 114 41 46 89 98 105 115 17 18
60 66 97 107 36 41 84 92 105 115 21 22 76 83 123 134 140 153 155 169 185
184 30 16 72 14 106 -4z"/>
</g>
</svg>
