<svg width="16" height="16" viewBox="0 0 16 16" fill="none" xmlns="http://www.w3.org/2000/svg">
<path d="M14.42 7.85996L13.1334 5.1333C12.914 4.63464 12.5323 4.22489 12.0504 3.9707C11.5686 3.71651 11.0149 3.63283 10.4795 3.73327C9.94401 3.83372 9.45829 4.11238 9.10133 4.52392C8.74436 4.93547 8.53714 5.45569 8.51338 5.99996C8.37049 5.88004 8.18992 5.81431 8.00338 5.81431C7.81684 5.81431 7.63626 5.88004 7.49338 5.99996C7.46666 5.45827 7.25827 4.94137 6.9018 4.53263C6.54533 4.12388 6.06157 3.84712 5.52855 3.74699C4.99553 3.64685 4.44431 3.72918 3.96381 3.98069C3.4833 4.2322 3.10152 4.63823 2.88004 5.1333L1.58671 7.8533C1.3676 8.22924 1.23232 8.6481 1.19013 9.08118C1.14794 9.51427 1.19984 9.95136 1.34227 10.3625C1.48471 10.7737 1.71431 11.1492 2.01536 11.4634C2.31642 11.7776 2.68181 12.023 3.08652 12.1828C3.49124 12.3427 3.92571 12.4132 4.36021 12.3895C4.7947 12.3658 5.21894 12.2486 5.60389 12.0457C5.98885 11.8428 6.32541 11.5592 6.59055 11.2141C6.85568 10.8691 7.04313 10.4708 7.14004 10.0466C7.17617 9.86637 7.19845 9.68362 7.20671 9.49996C7.42771 9.68922 7.70908 9.79325 8.00004 9.7933C8.29059 9.79096 8.57119 9.6872 8.79338 9.49996C8.79833 9.68388 8.82065 9.86691 8.86004 10.0466C9.00009 10.7979 9.41911 11.4683 10.033 11.9234C10.6469 12.3785 11.4102 12.5845 12.1697 12.5001C12.9292 12.4157 13.6286 12.0472 14.1277 11.4684C14.6267 10.8897 14.8883 10.1436 14.86 9.37996C14.8534 8.84285 14.7013 8.31758 14.42 7.85996ZM4.19338 11.5733C3.75694 11.5733 3.3303 11.4439 2.96742 11.2014C2.60453 10.9589 2.3217 10.6143 2.15468 10.2111C1.98766 9.80787 1.94397 9.36418 2.02911 8.93613C2.11425 8.50808 2.32442 8.11489 2.63303 7.80628C2.94163 7.49767 3.33483 7.28751 3.76288 7.20236C4.19093 7.11722 4.63462 7.16092 5.03783 7.32794C5.44105 7.49495 5.78568 7.77779 6.02815 8.14067C6.27062 8.50356 6.40004 8.93019 6.40004 9.36663C6.40004 9.95187 6.16756 10.5131 5.75373 10.927C5.33989 11.3408 4.77862 11.5733 4.19338 11.5733ZM8.00004 8.95996C7.94489 8.95996 7.89027 8.9491 7.83932 8.92799C7.78836 8.90689 7.74206 8.87595 7.70306 8.83695C7.66406 8.79795 7.63312 8.75165 7.61201 8.70069C7.59091 8.64973 7.58004 8.59512 7.58004 8.53996C7.57255 8.48082 7.57773 8.42076 7.59524 8.36378C7.61275 8.3068 7.64219 8.25419 7.68161 8.20947C7.72102 8.16474 7.7695 8.12892 7.82383 8.10438C7.87816 8.07984 7.9371 8.06715 7.99671 8.06715C8.05632 8.06715 8.11525 8.07984 8.16958 8.10438C8.22391 8.12892 8.2724 8.16474 8.31181 8.20947C8.35123 8.25419 8.38067 8.3068 8.39818 8.36378C8.41569 8.42076 8.42087 8.48082 8.41338 8.53996C8.41339 8.65021 8.37006 8.75604 8.29273 8.83462C8.2154 8.91319 8.11027 8.95821 8.00004 8.95996ZM11.8067 11.5733C11.3697 11.5759 10.9418 11.4488 10.5771 11.2079C10.2125 10.967 9.9276 10.6233 9.75853 10.2204C9.58947 9.81739 9.54386 9.37329 9.6275 8.94436C9.71113 8.51544 9.92024 8.121 10.2283 7.81106C10.5364 7.50111 10.9295 7.28962 11.3579 7.20339C11.7864 7.11716 12.2307 7.16007 12.6347 7.32669C13.0387 7.49331 13.3841 7.77613 13.6272 8.1393C13.8703 8.50246 14 8.92963 14 9.36663C14.0001 9.94843 13.7703 10.5067 13.3608 10.92C12.9513 11.3332 12.3951 11.568 11.8134 11.5733H11.8067Z" fill="#303238"/>
</svg>
