<svg width="16" height="16" viewBox="0 0 16 16" fill="none" xmlns="http://www.w3.org/2000/svg">
<path d="M3.58204 3.00659C4.79984 1.92618 6.37206 1.33069 8.00004 1.33326C11.682 1.33326 14.6667 4.31793 14.6667 7.99993C14.6689 9.36253 14.2515 10.6928 13.4714 11.8099L11.6667 7.99993H13.3334C13.3334 6.9395 13.0173 5.90313 12.4255 5.02323C11.8336 4.14332 10.9929 3.45982 10.0107 3.06003C9.02854 2.66025 7.94948 2.56233 6.91138 2.77879C5.87327 2.99525 4.92327 3.51626 4.18271 4.27526L3.58204 3.00659ZM12.418 12.9933C11.2002 14.0737 9.62802 14.6692 8.00004 14.6666C4.31804 14.6666 1.33337 11.6819 1.33337 7.99993C1.33337 6.58326 1.77537 5.26993 2.52871 4.18993L4.33337 7.99993H2.66671C2.66669 9.06036 2.98279 10.0967 3.57463 10.9766C4.16647 11.8565 5.00717 12.54 5.98936 12.9398C6.97154 13.3396 8.0506 13.4375 9.08871 13.2211C10.1268 13.0046 11.0768 12.4836 11.8174 11.7246L12.418 12.9933Z" fill="#586D79"/>
</svg>
